<svg xmlns="http://www.w3.org/2000/svg" xmlns:v="https://svgstorm.com"
viewBox = "0 0 413 282"
width="413"
height="282">
<g fill="None" fill-opacity="0.0" stroke="#000000" stroke-opacity="0.00" stroke-width="0.3"><path d="
M 0.00 129.00 
C 0.50 129.00 1.00 129.00 1.00 129.00
C 1.89 127.21 2.88 126.38 4.00 125.00
C 13.92 112.73 26.40 100.84 38.30 90.30 C 50.19 79.75 61.80 67.32 74.25 57.25 C 86.69 47.18 96.10 32.29 111.00 25.00
C 121.26 19.98 130.08 29.42 136.70 36.30 C 143.31 43.19 152.43 52.86 148.00 62.00
C 135.45 87.89 100.54 100.90 87.00 126.00
C 76.79 144.92 108.71 157.10 116.75 171.25 C 124.80 185.39 152.44 197.95 151.00 216.00
C 150.12 227.05 130.88 244.55 121.00 247.00
C 112.70 249.06 103.24 245.56 98.00 238.00
C 81.39 224.35 66.32 206.95 51.08 191.92 C 35.84 176.89 19.23 161.49 5.00 145.00
C 3.40 143.14 1.78 141.39 1.00 139.00
C 0.95 138.85 0.00 139.00 0.00 139.00
L 0.00 282.00
L 185.00 282.00
C 173.78 276.48 151.02 276.48 146.00 262.00
C 144.86 258.71 145.30 256.16 146.00 253.00
C 148.83 240.22 155.21 228.70 159.31 216.31 C 163.40 203.91 169.25 191.65 173.32 179.32 C 177.40 167.00 182.95 154.73 187.77 142.77 C 192.59 130.82 196.08 117.66 200.99 105.99 C 205.91 94.32 210.52 80.40 215.32 69.32 C 220.13 58.24 224.55 41.82 228.99 31.99 C 233.43 22.16 237.94 3.29 250.00 2.00
C 250.14 1.20 251.07 0.88 251.00 0.00
L 0.00 0.00
L 0.00 129.00 Z"/>
</g>
<g fill="None" fill-opacity="0.0" stroke="#D287A9" stroke-opacity="0.99" stroke-width="0.3"><path d="
M 250.00 2.00 
C 249.91 2.48 250.00 3.00 250.00 3.00
C 252.25 3.24 249.19 18.51 247.01 23.01 C 244.83 27.50 241.53 36.81 239.68 42.68 C 237.82 48.54 233.94 56.69 232.02 63.02 C 230.11 69.36 225.94 75.52 224.08 82.08 C 222.22 88.64 219.46 95.41 217.02 102.02 C 214.59 108.64 211.72 115.60 209.03 122.03 C 206.33 128.46 203.69 134.69 201.23 141.23 C 198.76 147.76 196.51 154.41 194.07 161.07 C 191.64 167.73 188.27 174.52 186.22 181.22 C 184.17 187.92 180.55 193.70 178.08 200.08 C 175.61 206.46 174.07 213.82 171.07 220.07 C 168.08 226.33 166.13 234.54 163.68 240.68 C 161.23 246.81 158.42 255.17 161.32 260.68 C 164.22 266.18 172.70 269.30 178.22 270.78 C 183.74 272.25 191.51 280.06 197.00 278.00
C 208.30 268.35 208.65 250.92 214.78 237.78 C 220.91 224.64 225.15 208.19 230.33 194.33 C 235.51 180.46 241.40 166.23 245.93 151.93 C 250.45 137.62 257.52 123.21 261.92 108.92 C 266.33 94.64 273.54 80.32 276.99 65.99 C 280.45 51.66 293.04 36.31 291.00 21.00
C 290.59 19.28 287.32 15.03 285.00 15.00
C 288.34 24.29 280.36 30.94 277.23 39.23 C 274.10 47.52 270.18 56.27 267.03 64.03 C 263.88 71.79 260.51 81.29 257.07 89.07 C 253.63 96.86 249.61 105.36 246.68 113.68 C 243.74 122.00 239.81 130.98 236.69 138.69 C 233.58 146.41 230.50 153.36 227.23 162.23 C 223.96 171.10 220.49 177.54 217.10 185.10 C 213.71 192.66 211.57 203.15 207.07 210.07 C 202.58 217.00 201.64 228.50 196.00 232.00
C 198.56 239.12 187.67 252.59 179.00 245.00
C 178.09 247.88 173.33 248.58 171.00 251.00
C 171.69 234.47 180.18 218.35 185.78 201.78 C 191.37 185.20 197.51 168.10 203.77 151.77 C 210.03 135.44 215.20 117.08 221.92 100.92 C 228.64 84.77 233.73 67.42 240.32 51.32 C 246.92 35.22 250.31 16.78 263.00 5.00
C 261.60 1.84 259.11 1.64 263.00 0.00
L 251.00 0.00
C 251.07 0.88 250.14 1.20 250.00 2.00 Z"/>
</g>
<g fill="None" fill-opacity="0.0" stroke="#DDA1BB" stroke-opacity="1.00" stroke-width="0.3"><path d="
M 291.00 21.00 
C 289.34 8.52 271.88 6.82 264.00 0.00
L 263.00 0.00
C 259.11 1.64 261.60 1.84 263.00 5.00
C 250.31 16.78 246.92 35.22 240.32 51.32 C 233.73 67.42 228.64 84.77 221.92 100.92 C 215.20 117.08 210.03 135.44 203.77 151.77 C 197.51 168.10 191.37 185.20 185.78 201.78 C 180.18 218.35 171.69 234.47 171.00 251.00
C 173.33 248.58 178.09 247.88 179.00 245.00
C 187.67 252.59 198.56 239.12 196.00 232.00
C 201.64 228.50 202.58 217.00 207.07 210.07 C 211.57 203.15 213.71 192.66 217.10 185.10 C 220.49 177.54 223.96 171.10 227.23 162.23 C 230.50 153.36 233.58 146.41 236.69 138.69 C 239.81 130.98 243.74 122.00 246.68 113.68 C 249.61 105.36 253.63 96.86 257.07 89.07 C 260.51 81.29 263.88 71.79 267.03 64.03 C 270.18 56.27 274.10 47.52 277.23 39.23 C 280.36 30.94 288.34 24.29 285.00 15.00
C 287.32 15.03 290.59 19.28 291.00 21.00
M 285.00 18.00 
C 282.97 27.23 270.69 23.35 265.32 28.32 C 259.95 33.29 258.60 40.36 255.00 47.00
C 248.94 43.17 257.05 32.29 257.75 26.75 C 258.46 21.22 257.33 8.35 265.01 8.01 C 272.69 7.67 279.15 14.05 285.00 18.00 Z"/>
</g>
<g fill="None" fill-opacity="0.0" stroke="#000000" stroke-opacity="0.00" stroke-width="0.3"><path d="
M 291.00 21.00 
C 293.04 36.31 280.45 51.66 276.99 65.99 C 273.54 80.32 266.33 94.64 261.92 108.92 C 257.52 123.21 250.45 137.62 245.93 151.93 C 241.40 166.23 235.51 180.46 230.33 194.33 C 225.15 208.19 220.91 224.64 214.78 237.78 C 208.65 250.92 208.30 268.35 197.00 278.00
C 195.38 279.38 194.03 280.24 192.00 281.00
C 191.65 281.13 191.17 281.67 191.00 282.00
L 413.00 282.00
L 413.00 142.00
C 386.13 171.76 364.61 208.36 335.00 236.00
C 333.19 237.69 332.39 238.96 330.00 240.00
C 313.86 247.05 295.33 233.19 287.70 218.30 C 280.07 203.42 303.60 187.72 310.75 176.75 C 317.90 165.78 341.50 150.48 335.02 134.98 C 328.55 119.47 312.70 112.05 303.25 98.75 C 293.80 85.46 272.38 74.45 287.00 58.00
C 291.07 53.42 295.58 49.12 300.00 45.00
C 305.27 40.08 313.17 34.96 321.00 36.00
C 330.78 37.30 338.44 51.58 345.75 58.25 C 353.06 64.91 360.40 76.43 368.25 83.75 C 376.10 91.07 383.84 100.77 391.25 108.75 C 398.66 116.73 408.02 125.44 412.00 136.00
C 412.06 136.17 413.00 136.00 413.00 136.00
L 413.00 0.00
L 264.00 0.00
C 271.88 6.82 289.34 8.52 291.00 21.00 Z"/>
</g>
<g fill="None" fill-opacity="0.0" stroke="#AA5F78" stroke-opacity="0.95" stroke-width="0.3"><path d="
M 146.00 253.00 
C 145.73 255.59 145.48 259.45 146.00 262.00
C 151.02 276.48 173.78 276.48 185.00 282.00
L 191.00 282.00
C 191.17 281.67 191.65 281.13 192.00 281.00
C 191.80 277.18 178.91 275.99 174.92 273.08 C 170.94 270.16 160.24 271.32 158.23 263.77 C 156.22 256.22 157.75 251.40 160.31 243.31 C 162.86 235.21 163.74 233.55 166.78 223.78 C 169.81 214.00 175.87 199.59 179.98 189.98 C 184.08 180.36 183.68 178.60 186.92 170.92 C 190.16 163.25 190.88 158.64 193.93 151.93 C 196.97 145.21 199.14 140.91 201.32 134.32 C 203.50 127.73 206.07 121.94 208.77 115.77 C 211.47 109.60 212.87 103.30 214.98 96.98 C 217.09 90.65 219.45 84.28 222.31 78.31 C 225.16 72.33 228.26 66.36 229.93 59.93 C 231.59 53.49 234.98 48.10 236.78 41.78 C 238.57 35.46 242.16 29.13 243.93 22.93 C 245.69 16.73 250.49 9.55 250.00 3.00
C 250.00 3.00 249.91 2.48 250.00 2.00
C 237.94 3.29 233.43 22.16 228.99 31.99 C 224.55 41.82 220.13 58.24 215.32 69.32 C 210.52 80.40 205.91 94.32 200.99 105.99 C 196.08 117.66 192.59 130.82 187.77 142.77 C 182.95 154.73 177.40 167.00 173.32 179.32 C 169.25 191.65 163.40 203.91 159.31 216.31 C 155.21 228.70 148.83 240.22 146.00 253.00 Z"/>
</g>
<g fill="None" fill-opacity="0.0" stroke="#C26B90" stroke-opacity="1.00" stroke-width="0.3"><path d="
M 192.00 281.00 
C 194.03 280.24 195.38 279.38 197.00 278.00
C 191.51 280.06 183.74 272.25 178.22 270.78 C 172.70 269.30 164.22 266.18 161.32 260.68 C 158.42 255.17 161.23 246.81 163.68 240.68 C 166.13 234.54 168.08 226.33 171.07 220.07 C 174.07 213.82 175.61 206.46 178.08 200.08 C 180.55 193.70 184.17 187.92 186.22 181.22 C 188.27 174.52 191.64 167.73 194.07 161.07 C 196.51 154.41 198.76 147.76 201.23 141.23 C 203.69 134.69 206.33 128.46 209.03 122.03 C 211.72 115.60 214.59 108.64 217.02 102.02 C 219.46 95.41 222.22 88.64 224.08 82.08 C 225.94 75.52 230.11 69.36 232.02 63.02 C 233.94 56.69 237.82 48.54 239.68 42.68 C 241.53 36.81 244.83 27.50 247.01 23.01 C 249.19 18.51 252.25 3.24 250.00 3.00
C 250.49 9.55 245.69 16.73 243.93 22.93 C 242.16 29.13 238.57 35.46 236.78 41.78 C 234.98 48.10 231.59 53.49 229.93 59.93 C 228.26 66.36 225.16 72.33 222.31 78.31 C 219.45 84.28 217.09 90.65 214.98 96.98 C 212.87 103.30 211.47 109.60 208.77 115.77 C 206.07 121.94 203.50 127.73 201.32 134.32 C 199.14 140.91 196.97 145.21 193.93 151.93 C 190.88 158.64 190.16 163.25 186.92 170.92 C 183.68 178.60 184.08 180.36 179.98 189.98 C 175.87 199.59 169.81 214.00 166.78 223.78 C 163.74 233.55 162.86 235.21 160.31 243.31 C 157.75 251.40 156.22 256.22 158.23 263.77 C 160.24 271.32 170.94 270.16 174.92 273.08 C 178.91 275.99 191.80 277.18 192.00 281.00 Z"/>
</g>
<g fill="None" fill-opacity="0.0" stroke="#E7BACE" stroke-opacity="1.00" stroke-width="0.3"><path d="
M 285.00 18.00 
C 279.15 14.05 272.69 7.67 265.01 8.01 C 257.33 8.35 258.46 21.22 257.75 26.75 C 257.05 32.29 248.94 43.17 255.00 47.00
C 258.60 40.36 259.95 33.29 265.32 28.32 C 270.69 23.35 282.97 27.23 285.00 18.00 Z"/>
</g>
<g fill="None" fill-opacity="0.0" stroke="#D48CAD" stroke-opacity="0.99" stroke-width="0.3"><path d="
M 111.00 25.00 
C 106.05 29.12 102.41 38.66 95.25 43.25 C 88.09 47.83 82.78 55.48 75.77 60.77 C 68.76 66.06 64.56 73.23 57.25 78.25 C 49.94 83.26 45.94 91.30 38.75 96.75 C 31.55 102.19 27.47 108.58 20.08 114.08 C 12.70 119.58 11.05 132.33 19.25 137.75 C 27.46 143.16 29.41 147.88 36.75 154.25 C 44.10 160.62 48.60 166.65 55.25 172.75 C 61.89 178.85 67.22 184.55 73.25 190.75 C 79.28 196.95 86.39 202.73 91.77 209.23 C 97.15 215.73 105.65 219.77 110.25 226.75 C 114.84 233.74 127.49 242.13 132.74 234.74 C 138.00 227.36 148.74 223.57 151.00 216.00
C 152.44 197.95 124.80 185.39 116.75 171.25 C 108.71 157.10 76.79 144.92 87.00 126.00
C 90.76 111.95 105.06 104.14 114.75 92.75 C 124.45 81.36 138.65 72.57 148.00 62.00
C 152.43 52.86 143.31 43.19 136.70 36.30 C 130.08 29.42 121.26 19.98 111.00 25.00
M 88.00 150.00 
C 88.16 150.44 88.00 151.00 88.00 151.00
C 98.84 158.58 108.26 171.09 117.75 180.25 C 127.24 189.40 141.89 199.99 143.00 212.00
C 138.65 211.06 131.36 212.60 129.00 216.00
C 119.79 212.39 112.82 207.17 106.08 199.92 C 99.33 192.67 91.22 188.17 84.92 181.08 C 78.62 174.00 70.24 169.75 63.25 162.75 C 56.26 155.76 47.96 149.37 44.00 142.00
C 39.69 137.21 26.11 135.43 21.75 128.25 C 17.39 121.06 31.02 112.76 36.25 107.25 C 41.47 101.73 50.10 94.57 56.25 88.25 C 62.39 81.92 69.92 75.64 76.25 69.25 C 82.58 62.86 89.70 56.81 96.75 50.75 C 103.79 44.68 108.68 36.14 118.08 33.08 C 127.49 30.03 134.09 38.68 140.25 46.75 C 146.41 54.82 130.83 58.66 124.77 64.77 C 118.71 70.88 111.10 77.52 104.75 83.75 C 98.40 89.98 90.07 95.98 84.75 102.75 C 79.43 109.52 70.81 116.72 72.93 126.08 C 75.06 135.44 84.36 141.19 88.00 150.00 Z"/>
</g>
<g fill="None" fill-opacity="0.0" stroke="#BF7294" stroke-opacity="0.96" stroke-width="0.3"><path d="
M 4.00 125.00 
C 2.49 133.62 11.17 140.42 16.75 146.25 C 22.34 152.08 28.26 157.58 33.75 163.25 C 39.24 168.91 45.24 174.49 50.75 180.25 C 56.27 186.00 62.06 191.47 67.75 197.25 C 73.45 203.02 79.94 208.47 84.75 214.25 C 89.57 220.03 90.19 218.55 93.70 222.30 C 97.20 226.05 98.65 228.48 101.75 231.25 C 104.85 234.01 109.31 236.34 110.70 239.30 C 112.09 242.25 121.79 245.25 121.00 247.00
C 130.88 244.55 150.12 227.05 151.00 216.00
C 148.74 223.57 138.00 227.36 132.74 234.74 C 127.49 242.13 114.84 233.74 110.25 226.75 C 105.65 219.77 97.15 215.73 91.77 209.23 C 86.39 202.73 79.28 196.95 73.25 190.75 C 67.22 184.55 61.89 178.85 55.25 172.75 C 48.60 166.65 44.10 160.62 36.75 154.25 C 29.41 147.88 27.46 143.16 19.25 137.75 C 11.05 132.33 12.70 119.58 20.08 114.08 C 27.47 108.58 31.55 102.19 38.75 96.75 C 45.94 91.30 49.94 83.26 57.25 78.25 C 64.56 73.23 68.76 66.06 75.77 60.77 C 82.78 55.48 88.09 47.83 95.25 43.25 C 102.41 38.66 106.05 29.12 111.00 25.00
C 96.10 32.29 86.69 47.18 74.25 57.25 C 61.80 67.32 50.19 79.75 38.30 90.30 C 26.40 100.84 13.92 112.73 4.00 125.00 Z"/>
</g>
<g fill="None" fill-opacity="0.0" stroke="#DFA5BF" stroke-opacity="1.00" stroke-width="0.3"><path d="
M 88.00 151.00 
C 93.43 162.09 107.45 168.17 114.75 178.25 C 122.06 188.33 135.75 195.75 141.00 207.00
C 130.41 205.07 122.61 194.30 114.75 187.25 C 106.89 180.20 98.32 171.57 91.23 164.77 C 84.14 157.97 71.14 147.65 79.00 139.00
C 82.33 142.46 83.73 147.48 88.00 150.00
C 84.36 141.19 75.06 135.44 72.93 126.08 C 70.81 116.72 79.43 109.52 84.75 102.75 C 90.07 95.98 98.40 89.98 104.75 83.75 C 111.10 77.52 118.71 70.88 124.77 64.77 C 130.83 58.66 146.41 54.82 140.25 46.75 C 134.09 38.68 127.49 30.03 118.08 33.08 C 108.68 36.14 103.79 44.68 96.75 50.75 C 89.70 56.81 82.58 62.86 76.25 69.25 C 69.92 75.64 62.39 81.92 56.25 88.25 C 50.10 94.57 41.47 101.73 36.25 107.25 C 31.02 112.76 17.39 121.06 21.75 128.25 C 26.11 135.43 39.69 137.21 44.00 142.00
C 47.96 149.37 56.26 155.76 63.25 162.75 C 70.24 169.75 78.62 174.00 84.92 181.08 C 91.22 188.17 99.33 192.67 106.08 199.92 C 112.82 207.17 119.79 212.39 129.00 216.00
C 131.36 212.60 138.65 211.06 143.00 212.00
C 141.89 199.99 127.24 189.40 117.75 180.25 C 108.26 171.09 98.84 158.58 88.00 151.00 Z"/>
</g>
<g fill="None" fill-opacity="0.0" stroke="#D185A8" stroke-opacity="1.00" stroke-width="0.3"><path d="
M 300.00 45.00 
C 303.01 43.24 306.38 43.38 310.00 40.00
C 299.94 49.08 296.47 61.33 306.90 70.10 C 317.34 78.87 321.21 86.97 330.75 96.25 C 340.30 105.52 345.20 112.71 353.92 123.08 C 362.64 133.45 353.03 146.75 344.75 154.75 C 336.47 162.76 328.82 173.72 321.70 181.70 C 314.59 189.68 300.27 201.59 305.75 212.25 C 311.24 222.90 324.77 227.70 328.00 238.00
C 330.68 238.54 332.78 237.08 335.00 236.00
C 364.61 208.36 386.13 171.76 413.00 142.00
L 413.00 136.00
C 413.00 136.00 412.06 136.17 412.00 136.00
C 411.99 137.57 412.67 140.22 411.00 141.00
C 411.16 129.96 395.21 138.75 391.25 145.25 C 387.29 151.75 377.80 154.85 378.00 163.00
C 371.70 162.02 370.53 174.08 363.00 175.00
C 365.29 179.21 355.61 184.36 353.41 187.75 C 351.22 191.14 345.85 193.66 343.08 199.08 C 340.31 204.50 334.14 208.11 330.77 211.77 C 327.39 215.43 315.74 212.33 311.78 209.22 C 307.81 206.12 316.71 196.67 319.25 193.25 C 321.79 189.83 327.12 183.65 330.75 179.75 C 334.38 175.86 339.54 171.16 343.25 166.25 C 346.95 161.34 351.11 158.28 354.25 152.25 C 357.40 146.22 360.03 142.78 361.99 134.99 C 363.96 127.20 364.77 124.81 358.75 116.25 C 352.72 107.70 341.97 98.00 335.08 89.92 C 328.20 81.84 328.19 82.64 322.25 76.75 C 316.30 70.86 316.12 69.12 308.92 65.08 C 301.73 61.03 306.93 54.69 311.75 50.75 C 316.57 46.82 321.83 41.95 321.00 36.00
C 313.17 34.96 305.27 40.08 300.00 45.00 Z"/>
</g>
<g fill="None" fill-opacity="0.0" stroke="#DCA1BB" stroke-opacity="0.99" stroke-width="0.3"><path d="
M 412.00 136.00 
C 408.02 125.44 398.66 116.73 391.25 108.75 C 383.84 100.77 376.10 91.07 368.25 83.75 C 360.40 76.43 353.06 64.91 345.75 58.25 C 338.44 51.58 330.78 37.30 321.00 36.00
C 321.83 41.95 316.57 46.82 311.75 50.75 C 306.93 54.69 301.73 61.03 308.92 65.08 C 316.12 69.12 316.30 70.86 322.25 76.75 C 328.19 82.64 328.20 81.84 335.08 89.92 C 341.97 98.00 352.72 107.70 358.75 116.25 C 364.77 124.81 363.96 127.20 361.99 134.99 C 360.03 142.78 357.40 146.22 354.25 152.25 C 351.11 158.28 346.95 161.34 343.25 166.25 C 339.54 171.16 334.38 175.86 330.75 179.75 C 327.12 183.65 321.79 189.83 319.25 193.25 C 316.71 196.67 307.81 206.12 311.78 209.22 C 315.74 212.33 327.39 215.43 330.77 211.77 C 334.14 208.11 340.31 204.50 343.08 199.08 C 345.85 193.66 351.22 191.14 353.41 187.75 C 355.61 184.36 365.29 179.21 363.00 175.00
C 370.53 174.08 371.70 162.02 378.00 163.00
C 377.80 154.85 387.29 151.75 391.25 145.25 C 395.21 138.75 411.16 129.96 411.00 141.00
C 412.67 140.22 411.99 137.57 412.00 136.00
M 331.00 52.00 
C 328.40 51.03 317.89 52.04 320.78 46.78 C 323.67 41.51 330.57 48.73 331.00 52.00 Z"/>
</g>
<g fill="None" fill-opacity="0.0" stroke="#BE678B" stroke-opacity="1.00" stroke-width="0.3"><path d="
M 300.00 45.00 
C 295.58 49.12 291.07 53.42 287.00 58.00
C 287.44 57.72 292.10 57.18 293.00 55.00
C 297.06 70.38 311.27 78.84 321.25 91.75 C 331.22 104.66 342.13 110.67 351.77 126.23 C 361.41 141.79 339.37 154.12 331.25 166.25 C 323.12 178.37 306.29 187.43 302.23 202.23 C 298.17 217.03 321.88 230.86 330.00 240.00
C 332.39 238.96 333.19 237.69 335.00 236.00
C 332.78 237.08 330.68 238.54 328.00 238.00
C 324.77 227.70 311.24 222.90 305.75 212.25 C 300.27 201.59 314.59 189.68 321.70 181.70 C 328.82 173.72 336.47 162.76 344.75 154.75 C 353.03 146.75 362.64 133.45 353.92 123.08 C 345.20 112.71 340.30 105.52 330.75 96.25 C 321.21 86.97 317.34 78.87 306.90 70.10 C 296.47 61.33 299.94 49.08 310.00 40.00
C 306.38 43.38 303.01 43.24 300.00 45.00 Z"/>
</g>
<g fill="None" fill-opacity="0.0" stroke="#EFCAD9" stroke-opacity="1.00" stroke-width="0.3"><path d="
M 331.00 52.00 
C 330.57 48.73 323.67 41.51 320.78 46.78 C 317.89 52.04 328.40 51.03 331.00 52.00 Z"/>
</g>
<g fill="None" fill-opacity="0.0" stroke="#A75971" stroke-opacity="0.97" stroke-width="0.3"><path d="
M 287.00 58.00 
C 272.38 74.45 293.80 85.46 303.25 98.75 C 312.70 112.05 328.55 119.47 335.02 134.98 C 341.50 150.48 317.90 165.78 310.75 176.75 C 303.60 187.72 280.07 203.42 287.70 218.30 C 295.33 233.19 313.86 247.05 330.00 240.00
C 321.88 230.86 298.17 217.03 302.23 202.23 C 306.29 187.43 323.12 178.37 331.25 166.25 C 339.37 154.12 361.41 141.79 351.77 126.23 C 342.13 110.67 331.22 104.66 321.25 91.75 C 311.27 78.84 297.06 70.38 293.00 55.00
C 292.10 57.18 287.44 57.72 287.00 58.00 Z"/>
</g>
<g fill="None" fill-opacity="0.0" stroke="#BB6B8C" stroke-opacity="0.93" stroke-width="0.3"><path d="
M 87.00 126.00 
C 100.54 100.90 135.45 87.89 148.00 62.00
C 138.65 72.57 124.45 81.36 114.75 92.75 C 105.06 104.14 90.76 111.95 87.00 126.00 Z"/>
</g>
<g fill="None" fill-opacity="0.0" stroke="#A56479" stroke-opacity="0.98" stroke-width="0.3"><path d="
M 1.00 129.00 
C 1.28 132.15 1.28 135.85 1.00 139.00
C 1.78 141.39 3.40 143.14 5.00 145.00
C 22.89 156.43 38.45 174.25 53.23 189.77 C 68.01 205.28 85.80 220.39 98.00 238.00
C 103.24 245.56 112.70 249.06 121.00 247.00
C 121.79 245.25 112.09 242.25 110.70 239.30 C 109.31 236.34 104.85 234.01 101.75 231.25 C 98.65 228.48 97.20 226.05 93.70 222.30 C 90.19 218.55 89.57 220.03 84.75 214.25 C 79.94 208.47 73.45 203.02 67.75 197.25 C 62.06 191.47 56.27 186.00 50.75 180.25 C 45.24 174.49 39.24 168.91 33.75 163.25 C 28.26 157.58 22.34 152.08 16.75 146.25 C 11.17 140.42 2.49 133.62 4.00 125.00
C 2.88 126.38 1.89 127.21 1.00 129.00 Z"/>
</g>
<g fill="None" fill-opacity="0.0" stroke="#9D6066" stroke-opacity="0.10" stroke-width="0.3"><path d="
M 0.00 139.00 
C 0.00 139.00 0.95 138.85 1.00 139.00
C 1.28 135.85 1.28 132.15 1.00 129.00
C 1.00 129.00 0.50 129.00 0.00 129.00
L 0.00 139.00 Z"/>
</g>
<g fill="None" fill-opacity="0.0" stroke="#EABDD1" stroke-opacity="1.00" stroke-width="0.3"><path d="
M 88.00 151.00 
C 88.00 151.00 88.16 150.44 88.00 150.00
C 83.73 147.48 82.33 142.46 79.00 139.00
C 71.14 147.65 84.14 157.97 91.23 164.77 C 98.32 171.57 106.89 180.20 114.75 187.25 C 122.61 194.30 130.41 205.07 141.00 207.00
C 135.75 195.75 122.06 188.33 114.75 178.25 C 107.45 168.17 93.43 162.09 88.00 151.00 Z"/>
</g>
<g fill="None" fill-opacity="0.0" stroke="#9F7582" stroke-opacity="0.80" stroke-width="0.3"><path d="
M 98.00 238.00 
C 85.80 220.39 68.01 205.28 53.23 189.77 C 38.45 174.25 22.89 156.43 5.00 145.00
C 19.23 161.49 35.84 176.89 51.08 191.92 C 66.32 206.95 81.39 224.35 98.00 238.00 Z"/>
</g>
<g fill="None" fill-opacity="0.0" stroke="#807178" stroke-opacity="0.09" stroke-width="0.3"><path d="
M 146.00 262.00 
C 145.48 259.45 145.73 255.59 146.00 253.00
C 145.30 256.16 144.86 258.71 146.00 262.00 Z"/>
</g>
<g fill="#000000" fill-opacity="0.00" stroke="None">
<path d="
M 0.00 129.00 
C 0.50 129.00 1.00 129.00 1.00 129.00
C 1.89 127.21 2.88 126.38 4.00 125.00
C 13.92 112.73 26.40 100.84 38.30 90.30 C 50.19 79.75 61.80 67.32 74.25 57.25 C 86.69 47.18 96.10 32.29 111.00 25.00
C 121.26 19.98 130.08 29.42 136.70 36.30 C 143.31 43.19 152.43 52.86 148.00 62.00
C 135.45 87.89 100.54 100.90 87.00 126.00
C 76.79 144.92 108.71 157.10 116.75 171.25 C 124.80 185.39 152.44 197.95 151.00 216.00
C 150.12 227.05 130.88 244.55 121.00 247.00
C 112.70 249.06 103.24 245.56 98.00 238.00
C 81.39 224.35 66.32 206.95 51.08 191.92 C 35.84 176.89 19.23 161.49 5.00 145.00
C 3.40 143.14 1.78 141.39 1.00 139.00
C 0.95 138.85 0.00 139.00 0.00 139.00
L 0.00 282.00
L 185.00 282.00
C 173.78 276.48 151.02 276.48 146.00 262.00
C 144.86 258.71 145.30 256.16 146.00 253.00
C 148.83 240.22 155.21 228.70 159.31 216.31 C 163.40 203.91 169.25 191.65 173.32 179.32 C 177.40 167.00 182.95 154.73 187.77 142.77 C 192.59 130.82 196.08 117.66 200.99 105.99 C 205.91 94.32 210.52 80.40 215.32 69.32 C 220.13 58.24 224.55 41.82 228.99 31.99 C 233.43 22.16 237.94 3.29 250.00 2.00
C 250.14 1.20 251.07 0.88 251.00 0.00
L 0.00 0.00
L 0.00 129.00 Z"/>
</g>
<g fill="#D287A9" fill-opacity="0.99" stroke="None">
<path d="
M 250.00 2.00 
C 249.91 2.48 250.00 3.00 250.00 3.00
C 252.25 3.24 249.19 18.51 247.01 23.01 C 244.83 27.50 241.53 36.81 239.68 42.68 C 237.82 48.54 233.94 56.69 232.02 63.02 C 230.11 69.36 225.94 75.52 224.08 82.08 C 222.22 88.64 219.46 95.41 217.02 102.02 C 214.59 108.64 211.72 115.60 209.03 122.03 C 206.33 128.46 203.69 134.69 201.23 141.23 C 198.76 147.76 196.51 154.41 194.07 161.07 C 191.64 167.73 188.27 174.52 186.22 181.22 C 184.17 187.92 180.55 193.70 178.08 200.08 C 175.61 206.46 174.07 213.82 171.07 220.07 C 168.08 226.33 166.13 234.54 163.68 240.68 C 161.23 246.81 158.42 255.17 161.32 260.68 C 164.22 266.18 172.70 269.30 178.22 270.78 C 183.74 272.25 191.51 280.06 197.00 278.00
C 208.30 268.35 208.65 250.92 214.78 237.78 C 220.91 224.64 225.15 208.19 230.33 194.33 C 235.51 180.46 241.40 166.23 245.93 151.93 C 250.45 137.62 257.52 123.21 261.92 108.92 C 266.33 94.64 273.54 80.32 276.99 65.99 C 280.45 51.66 293.04 36.31 291.00 21.00
C 290.59 19.28 287.32 15.03 285.00 15.00
C 288.34 24.29 280.36 30.94 277.23 39.23 C 274.10 47.52 270.18 56.27 267.03 64.03 C 263.88 71.79 260.51 81.29 257.07 89.07 C 253.63 96.86 249.61 105.36 246.68 113.68 C 243.74 122.00 239.81 130.98 236.69 138.69 C 233.58 146.41 230.50 153.36 227.23 162.23 C 223.96 171.10 220.49 177.54 217.10 185.10 C 213.71 192.66 211.57 203.15 207.07 210.07 C 202.58 217.00 201.64 228.50 196.00 232.00
C 198.56 239.12 187.67 252.59 179.00 245.00
C 178.09 247.88 173.33 248.58 171.00 251.00
C 171.69 234.47 180.18 218.35 185.78 201.78 C 191.37 185.20 197.51 168.10 203.77 151.77 C 210.03 135.44 215.20 117.08 221.92 100.92 C 228.64 84.77 233.73 67.42 240.32 51.32 C 246.92 35.22 250.31 16.78 263.00 5.00
C 261.60 1.84 259.11 1.64 263.00 0.00
L 251.00 0.00
C 251.07 0.88 250.14 1.20 250.00 2.00 Z"/>
</g>
<g fill="#DDA1BB" fill-opacity="1.00" stroke="None">
<path d="
M 291.00 21.00 
C 289.34 8.52 271.88 6.82 264.00 0.00
L 263.00 0.00
C 259.11 1.64 261.60 1.84 263.00 5.00
C 250.31 16.78 246.92 35.22 240.32 51.32 C 233.73 67.42 228.64 84.77 221.92 100.92 C 215.20 117.08 210.03 135.44 203.77 151.77 C 197.51 168.10 191.37 185.20 185.78 201.78 C 180.18 218.35 171.69 234.47 171.00 251.00
C 173.33 248.58 178.09 247.88 179.00 245.00
C 187.67 252.59 198.56 239.12 196.00 232.00
C 201.64 228.50 202.58 217.00 207.07 210.07 C 211.57 203.15 213.71 192.66 217.10 185.10 C 220.49 177.54 223.96 171.10 227.23 162.23 C 230.50 153.36 233.58 146.41 236.69 138.69 C 239.81 130.98 243.74 122.00 246.68 113.68 C 249.61 105.36 253.63 96.86 257.07 89.07 C 260.51 81.29 263.88 71.79 267.03 64.03 C 270.18 56.27 274.10 47.52 277.23 39.23 C 280.36 30.94 288.34 24.29 285.00 15.00
C 287.32 15.03 290.59 19.28 291.00 21.00
M 285.00 18.00 
C 282.97 27.23 270.69 23.35 265.32 28.32 C 259.95 33.29 258.60 40.36 255.00 47.00
C 248.94 43.17 257.05 32.29 257.75 26.75 C 258.46 21.22 257.33 8.35 265.01 8.01 C 272.69 7.67 279.15 14.05 285.00 18.00 Z"/>
</g>
<g fill="#000000" fill-opacity="0.00" stroke="None">
<path d="
M 291.00 21.00 
C 293.04 36.31 280.45 51.66 276.99 65.99 C 273.54 80.32 266.33 94.64 261.92 108.92 C 257.52 123.21 250.45 137.62 245.93 151.93 C 241.40 166.23 235.51 180.46 230.33 194.33 C 225.15 208.19 220.91 224.64 214.78 237.78 C 208.65 250.92 208.30 268.35 197.00 278.00
C 195.38 279.38 194.03 280.24 192.00 281.00
C 191.65 281.13 191.17 281.67 191.00 282.00
L 413.00 282.00
L 413.00 142.00
C 386.13 171.76 364.61 208.36 335.00 236.00
C 333.19 237.69 332.39 238.96 330.00 240.00
C 313.86 247.05 295.33 233.19 287.70 218.30 C 280.07 203.42 303.60 187.72 310.75 176.75 C 317.90 165.78 341.50 150.48 335.02 134.98 C 328.55 119.47 312.70 112.05 303.25 98.75 C 293.80 85.46 272.38 74.45 287.00 58.00
C 291.07 53.42 295.58 49.12 300.00 45.00
C 305.27 40.08 313.17 34.96 321.00 36.00
C 330.78 37.30 338.44 51.58 345.75 58.25 C 353.06 64.91 360.40 76.43 368.25 83.75 C 376.10 91.07 383.84 100.77 391.25 108.75 C 398.66 116.73 408.02 125.44 412.00 136.00
C 412.06 136.17 413.00 136.00 413.00 136.00
L 413.00 0.00
L 264.00 0.00
C 271.88 6.82 289.34 8.52 291.00 21.00 Z"/>
</g>
<g fill="#AA5F78" fill-opacity="0.95" stroke="None">
<path d="
M 146.00 253.00 
C 145.73 255.59 145.48 259.45 146.00 262.00
C 151.02 276.48 173.78 276.48 185.00 282.00
L 191.00 282.00
C 191.17 281.67 191.65 281.13 192.00 281.00
C 191.80 277.18 178.91 275.99 174.92 273.08 C 170.94 270.16 160.24 271.32 158.23 263.77 C 156.22 256.22 157.75 251.40 160.31 243.31 C 162.86 235.21 163.74 233.55 166.78 223.78 C 169.81 214.00 175.87 199.59 179.98 189.98 C 184.08 180.36 183.68 178.60 186.92 170.92 C 190.16 163.25 190.88 158.64 193.93 151.93 C 196.97 145.21 199.14 140.91 201.32 134.32 C 203.50 127.73 206.07 121.94 208.77 115.77 C 211.47 109.60 212.87 103.30 214.98 96.98 C 217.09 90.65 219.45 84.28 222.31 78.31 C 225.16 72.33 228.26 66.36 229.93 59.93 C 231.59 53.49 234.98 48.10 236.78 41.78 C 238.57 35.46 242.16 29.13 243.93 22.93 C 245.69 16.73 250.49 9.55 250.00 3.00
C 250.00 3.00 249.91 2.48 250.00 2.00
C 237.94 3.29 233.43 22.16 228.99 31.99 C 224.55 41.82 220.13 58.24 215.32 69.32 C 210.52 80.40 205.91 94.32 200.99 105.99 C 196.08 117.66 192.59 130.82 187.77 142.77 C 182.95 154.73 177.40 167.00 173.32 179.32 C 169.25 191.65 163.40 203.91 159.31 216.31 C 155.21 228.70 148.83 240.22 146.00 253.00 Z"/>
</g>
<g fill="#C26B90" fill-opacity="1.00" stroke="None">
<path d="
M 192.00 281.00 
C 194.03 280.24 195.38 279.38 197.00 278.00
C 191.51 280.06 183.74 272.25 178.22 270.78 C 172.70 269.30 164.22 266.18 161.32 260.68 C 158.42 255.17 161.23 246.81 163.68 240.68 C 166.13 234.54 168.08 226.33 171.07 220.07 C 174.07 213.82 175.61 206.46 178.08 200.08 C 180.55 193.70 184.17 187.92 186.22 181.22 C 188.27 174.52 191.64 167.73 194.07 161.07 C 196.51 154.41 198.76 147.76 201.23 141.23 C 203.69 134.69 206.33 128.46 209.03 122.03 C 211.72 115.60 214.59 108.64 217.02 102.02 C 219.46 95.41 222.22 88.64 224.08 82.08 C 225.94 75.52 230.11 69.36 232.02 63.02 C 233.94 56.69 237.82 48.54 239.68 42.68 C 241.53 36.81 244.83 27.50 247.01 23.01 C 249.19 18.51 252.25 3.24 250.00 3.00
C 250.49 9.55 245.69 16.73 243.93 22.93 C 242.16 29.13 238.57 35.46 236.78 41.78 C 234.98 48.10 231.59 53.49 229.93 59.93 C 228.26 66.36 225.16 72.33 222.31 78.31 C 219.45 84.28 217.09 90.65 214.98 96.98 C 212.87 103.30 211.47 109.60 208.77 115.77 C 206.07 121.94 203.50 127.73 201.32 134.32 C 199.14 140.91 196.97 145.21 193.93 151.93 C 190.88 158.64 190.16 163.25 186.92 170.92 C 183.68 178.60 184.08 180.36 179.98 189.98 C 175.87 199.59 169.81 214.00 166.78 223.78 C 163.74 233.55 162.86 235.21 160.31 243.31 C 157.75 251.40 156.22 256.22 158.23 263.77 C 160.24 271.32 170.94 270.16 174.92 273.08 C 178.91 275.99 191.80 277.18 192.00 281.00 Z"/>
</g>
<g fill="#E7BACE" fill-opacity="1.00" stroke="None">
<path d="
M 285.00 18.00 
C 279.15 14.05 272.69 7.67 265.01 8.01 C 257.33 8.35 258.46 21.22 257.75 26.75 C 257.05 32.29 248.94 43.17 255.00 47.00
C 258.60 40.36 259.95 33.29 265.32 28.32 C 270.69 23.35 282.97 27.23 285.00 18.00 Z"/>
</g>
<g fill="#D48CAD" fill-opacity="0.99" stroke="None">
<path d="
M 111.00 25.00 
C 106.05 29.12 102.41 38.66 95.25 43.25 C 88.09 47.83 82.78 55.48 75.77 60.77 C 68.76 66.06 64.56 73.23 57.25 78.25 C 49.94 83.26 45.94 91.30 38.75 96.75 C 31.55 102.19 27.47 108.58 20.08 114.08 C 12.70 119.58 11.05 132.33 19.25 137.75 C 27.46 143.16 29.41 147.88 36.75 154.25 C 44.10 160.62 48.60 166.65 55.25 172.75 C 61.89 178.85 67.22 184.55 73.25 190.75 C 79.28 196.95 86.39 202.73 91.77 209.23 C 97.15 215.73 105.65 219.77 110.25 226.75 C 114.84 233.74 127.49 242.13 132.74 234.74 C 138.00 227.36 148.74 223.57 151.00 216.00
C 152.44 197.95 124.80 185.39 116.75 171.25 C 108.71 157.10 76.79 144.92 87.00 126.00
C 90.76 111.95 105.06 104.14 114.75 92.75 C 124.45 81.36 138.65 72.57 148.00 62.00
C 152.43 52.86 143.31 43.19 136.70 36.30 C 130.08 29.42 121.26 19.98 111.00 25.00
M 88.00 150.00 
C 88.16 150.44 88.00 151.00 88.00 151.00
C 98.84 158.58 108.26 171.09 117.75 180.25 C 127.24 189.40 141.89 199.99 143.00 212.00
C 138.65 211.06 131.36 212.60 129.00 216.00
C 119.79 212.39 112.82 207.17 106.08 199.92 C 99.33 192.67 91.22 188.17 84.92 181.08 C 78.62 174.00 70.24 169.75 63.25 162.75 C 56.26 155.76 47.96 149.37 44.00 142.00
C 39.69 137.21 26.11 135.43 21.75 128.25 C 17.39 121.06 31.02 112.76 36.25 107.25 C 41.47 101.73 50.10 94.57 56.25 88.25 C 62.39 81.92 69.92 75.64 76.25 69.25 C 82.58 62.86 89.70 56.81 96.75 50.75 C 103.79 44.68 108.68 36.14 118.08 33.08 C 127.49 30.03 134.09 38.68 140.25 46.75 C 146.41 54.82 130.83 58.66 124.77 64.77 C 118.71 70.88 111.10 77.52 104.75 83.75 C 98.40 89.98 90.07 95.98 84.75 102.75 C 79.43 109.52 70.81 116.72 72.93 126.08 C 75.06 135.44 84.36 141.19 88.00 150.00 Z"/>
</g>
<g fill="#BF7294" fill-opacity="0.96" stroke="None">
<path d="
M 4.00 125.00 
C 2.49 133.62 11.17 140.42 16.75 146.25 C 22.34 152.08 28.26 157.58 33.75 163.25 C 39.24 168.91 45.24 174.49 50.75 180.25 C 56.27 186.00 62.06 191.47 67.75 197.25 C 73.45 203.02 79.94 208.47 84.75 214.25 C 89.57 220.03 90.19 218.55 93.70 222.30 C 97.20 226.05 98.65 228.48 101.75 231.25 C 104.85 234.01 109.31 236.34 110.70 239.30 C 112.09 242.25 121.79 245.25 121.00 247.00
C 130.88 244.55 150.12 227.05 151.00 216.00
C 148.74 223.57 138.00 227.36 132.74 234.74 C 127.49 242.13 114.84 233.74 110.25 226.75 C 105.65 219.77 97.15 215.73 91.77 209.23 C 86.39 202.73 79.28 196.95 73.25 190.75 C 67.22 184.55 61.89 178.85 55.25 172.75 C 48.60 166.65 44.10 160.62 36.75 154.25 C 29.41 147.88 27.46 143.16 19.25 137.75 C 11.05 132.33 12.70 119.58 20.08 114.08 C 27.47 108.58 31.55 102.19 38.75 96.75 C 45.94 91.30 49.94 83.26 57.25 78.25 C 64.56 73.23 68.76 66.06 75.77 60.77 C 82.78 55.48 88.09 47.83 95.25 43.25 C 102.41 38.66 106.05 29.12 111.00 25.00
C 96.10 32.29 86.69 47.18 74.25 57.25 C 61.80 67.32 50.19 79.75 38.30 90.30 C 26.40 100.84 13.92 112.73 4.00 125.00 Z"/>
</g>
<g fill="#DFA5BF" fill-opacity="1.00" stroke="None">
<path d="
M 88.00 151.00 
C 93.43 162.09 107.45 168.17 114.75 178.25 C 122.06 188.33 135.75 195.75 141.00 207.00
C 130.41 205.07 122.61 194.30 114.75 187.25 C 106.89 180.20 98.32 171.57 91.23 164.77 C 84.14 157.97 71.14 147.65 79.00 139.00
C 82.33 142.46 83.73 147.48 88.00 150.00
C 84.36 141.19 75.06 135.44 72.93 126.08 C 70.81 116.72 79.43 109.52 84.75 102.75 C 90.07 95.98 98.40 89.98 104.75 83.75 C 111.10 77.52 118.71 70.88 124.77 64.77 C 130.83 58.66 146.41 54.82 140.25 46.75 C 134.09 38.68 127.49 30.03 118.08 33.08 C 108.68 36.14 103.79 44.68 96.75 50.75 C 89.70 56.81 82.58 62.86 76.25 69.25 C 69.92 75.64 62.39 81.92 56.25 88.25 C 50.10 94.57 41.47 101.73 36.25 107.25 C 31.02 112.76 17.39 121.06 21.75 128.25 C 26.11 135.43 39.69 137.21 44.00 142.00
C 47.96 149.37 56.26 155.76 63.25 162.75 C 70.24 169.75 78.62 174.00 84.92 181.08 C 91.22 188.17 99.33 192.67 106.08 199.92 C 112.82 207.17 119.79 212.39 129.00 216.00
C 131.36 212.60 138.65 211.06 143.00 212.00
C 141.89 199.99 127.24 189.40 117.75 180.25 C 108.26 171.09 98.84 158.58 88.00 151.00 Z"/>
</g>
<g fill="#D185A8" fill-opacity="1.00" stroke="None">
<path d="
M 300.00 45.00 
C 303.01 43.24 306.38 43.38 310.00 40.00
C 299.94 49.08 296.47 61.33 306.90 70.10 C 317.34 78.87 321.21 86.97 330.75 96.25 C 340.30 105.52 345.20 112.71 353.92 123.08 C 362.64 133.45 353.03 146.75 344.75 154.75 C 336.47 162.76 328.82 173.72 321.70 181.70 C 314.59 189.68 300.27 201.59 305.75 212.25 C 311.24 222.90 324.77 227.70 328.00 238.00
C 330.68 238.54 332.78 237.08 335.00 236.00
C 364.61 208.36 386.13 171.76 413.00 142.00
L 413.00 136.00
C 413.00 136.00 412.06 136.17 412.00 136.00
C 411.99 137.57 412.67 140.22 411.00 141.00
C 411.16 129.96 395.21 138.75 391.25 145.25 C 387.29 151.75 377.80 154.85 378.00 163.00
C 371.70 162.02 370.53 174.08 363.00 175.00
C 365.29 179.21 355.61 184.36 353.41 187.75 C 351.22 191.14 345.85 193.66 343.08 199.08 C 340.31 204.50 334.14 208.11 330.77 211.77 C 327.39 215.43 315.74 212.33 311.78 209.22 C 307.81 206.12 316.71 196.67 319.25 193.25 C 321.79 189.83 327.12 183.65 330.75 179.75 C 334.38 175.86 339.54 171.16 343.25 166.25 C 346.95 161.34 351.11 158.28 354.25 152.25 C 357.40 146.22 360.03 142.78 361.99 134.99 C 363.96 127.20 364.77 124.81 358.75 116.25 C 352.72 107.70 341.97 98.00 335.08 89.92 C 328.20 81.84 328.19 82.64 322.25 76.75 C 316.30 70.86 316.12 69.12 308.92 65.08 C 301.73 61.03 306.93 54.69 311.75 50.75 C 316.57 46.82 321.83 41.95 321.00 36.00
C 313.17 34.96 305.27 40.08 300.00 45.00 Z"/>
</g>
<g fill="#DCA1BB" fill-opacity="0.99" stroke="None">
<path d="
M 412.00 136.00 
C 408.02 125.44 398.66 116.73 391.25 108.75 C 383.84 100.77 376.10 91.07 368.25 83.75 C 360.40 76.43 353.06 64.91 345.75 58.25 C 338.44 51.58 330.78 37.30 321.00 36.00
C 321.83 41.95 316.57 46.82 311.75 50.75 C 306.93 54.69 301.73 61.03 308.92 65.08 C 316.12 69.12 316.30 70.86 322.25 76.75 C 328.19 82.64 328.20 81.84 335.08 89.92 C 341.97 98.00 352.72 107.70 358.75 116.25 C 364.77 124.81 363.96 127.20 361.99 134.99 C 360.03 142.78 357.40 146.22 354.25 152.25 C 351.11 158.28 346.95 161.34 343.25 166.25 C 339.54 171.16 334.38 175.86 330.75 179.75 C 327.12 183.65 321.79 189.83 319.25 193.25 C 316.71 196.67 307.81 206.12 311.78 209.22 C 315.74 212.33 327.39 215.43 330.77 211.77 C 334.14 208.11 340.31 204.50 343.08 199.08 C 345.85 193.66 351.22 191.14 353.41 187.75 C 355.61 184.36 365.29 179.21 363.00 175.00
C 370.53 174.08 371.70 162.02 378.00 163.00
C 377.80 154.85 387.29 151.75 391.25 145.25 C 395.21 138.75 411.16 129.96 411.00 141.00
C 412.67 140.22 411.99 137.57 412.00 136.00
M 331.00 52.00 
C 328.40 51.03 317.89 52.04 320.78 46.78 C 323.67 41.51 330.57 48.73 331.00 52.00 Z"/>
</g>
<g fill="#BE678B" fill-opacity="1.00" stroke="None">
<path d="
M 300.00 45.00 
C 295.58 49.12 291.07 53.42 287.00 58.00
C 287.44 57.72 292.10 57.18 293.00 55.00
C 297.06 70.38 311.27 78.84 321.25 91.75 C 331.22 104.66 342.13 110.67 351.77 126.23 C 361.41 141.79 339.37 154.12 331.25 166.25 C 323.12 178.37 306.29 187.43 302.23 202.23 C 298.17 217.03 321.88 230.86 330.00 240.00
C 332.39 238.96 333.19 237.69 335.00 236.00
C 332.78 237.08 330.68 238.54 328.00 238.00
C 324.77 227.70 311.24 222.90 305.75 212.25 C 300.27 201.59 314.59 189.68 321.70 181.70 C 328.82 173.72 336.47 162.76 344.75 154.75 C 353.03 146.75 362.64 133.45 353.92 123.08 C 345.20 112.71 340.30 105.52 330.75 96.25 C 321.21 86.97 317.34 78.87 306.90 70.10 C 296.47 61.33 299.94 49.08 310.00 40.00
C 306.38 43.38 303.01 43.24 300.00 45.00 Z"/>
</g>
<g fill="#EFCAD9" fill-opacity="1.00" stroke="None">
<path d="
M 331.00 52.00 
C 330.57 48.73 323.67 41.51 320.78 46.78 C 317.89 52.04 328.40 51.03 331.00 52.00 Z"/>
</g>
<g fill="#A75971" fill-opacity="0.97" stroke="None">
<path d="
M 287.00 58.00 
C 272.38 74.45 293.80 85.46 303.25 98.75 C 312.70 112.05 328.55 119.47 335.02 134.98 C 341.50 150.48 317.90 165.78 310.75 176.75 C 303.60 187.72 280.07 203.42 287.70 218.30 C 295.33 233.19 313.86 247.05 330.00 240.00
C 321.88 230.86 298.17 217.03 302.23 202.23 C 306.29 187.43 323.12 178.37 331.25 166.25 C 339.37 154.12 361.41 141.79 351.77 126.23 C 342.13 110.67 331.22 104.66 321.25 91.75 C 311.27 78.84 297.06 70.38 293.00 55.00
C 292.10 57.18 287.44 57.72 287.00 58.00 Z"/>
</g>
<g fill="#BB6B8C" fill-opacity="0.93" stroke="None">
<path d="
M 87.00 126.00 
C 100.54 100.90 135.45 87.89 148.00 62.00
C 138.65 72.57 124.45 81.36 114.75 92.75 C 105.06 104.14 90.76 111.95 87.00 126.00 Z"/>
</g>
<g fill="#A56479" fill-opacity="0.98" stroke="None">
<path d="
M 1.00 129.00 
C 1.28 132.15 1.28 135.85 1.00 139.00
C 1.78 141.39 3.40 143.14 5.00 145.00
C 22.89 156.43 38.45 174.25 53.23 189.77 C 68.01 205.28 85.80 220.39 98.00 238.00
C 103.24 245.56 112.70 249.06 121.00 247.00
C 121.79 245.25 112.09 242.25 110.70 239.30 C 109.31 236.34 104.85 234.01 101.75 231.25 C 98.65 228.48 97.20 226.05 93.70 222.30 C 90.19 218.55 89.57 220.03 84.75 214.25 C 79.94 208.47 73.45 203.02 67.75 197.25 C 62.06 191.47 56.27 186.00 50.75 180.25 C 45.24 174.49 39.24 168.91 33.75 163.25 C 28.26 157.58 22.34 152.08 16.75 146.25 C 11.17 140.42 2.49 133.62 4.00 125.00
C 2.88 126.38 1.89 127.21 1.00 129.00 Z"/>
</g>
<g fill="#9D6066" fill-opacity="0.10" stroke="None">
<path d="
M 0.00 139.00 
C 0.00 139.00 0.95 138.85 1.00 139.00
C 1.28 135.85 1.28 132.15 1.00 129.00
C 1.00 129.00 0.50 129.00 0.00 129.00
L 0.00 139.00 Z"/>
</g>
<g fill="#EABDD1" fill-opacity="1.00" stroke="None">
<path d="
M 88.00 151.00 
C 88.00 151.00 88.16 150.44 88.00 150.00
C 83.73 147.48 82.33 142.46 79.00 139.00
C 71.14 147.65 84.14 157.97 91.23 164.77 C 98.32 171.57 106.89 180.20 114.75 187.25 C 122.61 194.30 130.41 205.07 141.00 207.00
C 135.75 195.75 122.06 188.33 114.75 178.25 C 107.45 168.17 93.43 162.09 88.00 151.00 Z"/>
</g>
<g fill="#9F7582" fill-opacity="0.80" stroke="None">
<path d="
M 98.00 238.00 
C 85.80 220.39 68.01 205.28 53.23 189.77 C 38.45 174.25 22.89 156.43 5.00 145.00
C 19.23 161.49 35.84 176.89 51.08 191.92 C 66.32 206.95 81.39 224.35 98.00 238.00 Z"/>
</g>
<g fill="#807178" fill-opacity="0.09" stroke="None">
<path d="
M 146.00 262.00 
C 145.48 259.45 145.73 255.59 146.00 253.00
C 145.30 256.16 144.86 258.71 146.00 262.00 Z"/>
</g>
</svg>