<svg xmlns="http://www.w3.org/2000/svg" xmlns:xlink="http://www.w3.org/1999/xlink" width="173" zoomAndPan="magnify" viewBox="0 0 129.75 129.750003" height="173" preserveAspectRatio="xMidYMid meet" version="1.0"><defs><g/><clipPath id="7d202e6d9c"><path d="M 41 65 L 92.632812 65 L 92.632812 117 L 41 117 Z M 41 65 " clip-rule="nonzero"/></clipPath><clipPath id="b34766eb67"><path d="M 15.53125 48.578125 L 15.53125 78.433594 C 15.53125 88.675781 19.601562 98.5 26.84375 105.742188 C 34.085938 112.984375 43.910156 117.054688 54.152344 117.054688 C 64.398438 117.054688 74.21875 112.984375 81.464844 105.742188 C 88.707031 98.5 92.773438 88.675781 92.773438 78.433594 L 92.773438 48.578125 C 92.773438 38.332031 88.707031 28.511719 81.464844 21.265625 C 74.21875 14.023438 64.398438 9.957031 54.152344 9.957031 C 43.910156 9.957031 34.085938 14.023438 26.84375 21.265625 C 19.601562 28.511719 15.53125 38.332031 15.53125 48.578125 Z M 15.53125 48.578125 " clip-rule="nonzero"/></clipPath><clipPath id="9947742e04"><path d="M 15.53125 9.957031 L 33 9.957031 L 33 117 L 15.53125 117 Z M 15.53125 9.957031 " clip-rule="nonzero"/></clipPath><clipPath id="b3c944539a"><path d="M 15.53125 48.578125 L 15.53125 78.433594 C 15.53125 88.675781 19.601562 98.5 26.84375 105.742188 C 34.085938 112.984375 43.910156 117.054688 54.152344 117.054688 C 64.398438 117.054688 74.21875 112.984375 81.464844 105.742188 C 88.707031 98.5 92.773438 88.675781 92.773438 78.433594 L 92.773438 48.578125 C 92.773438 38.332031 88.707031 28.511719 81.464844 21.265625 C 74.21875 14.023438 64.398438 9.957031 54.152344 9.957031 C 43.910156 9.957031 34.085938 14.023438 26.84375 21.265625 C 19.601562 28.511719 15.53125 38.332031 15.53125 48.578125 Z M 15.53125 48.578125 " clip-rule="nonzero"/></clipPath></defs><g clip-path="url(#7d202e6d9c)"><g clip-path="url(#b34766eb67)"><path fill="#1e3a5f" d="M 41.167969 117.046875 L 92.765625 117.046875 L 75.488281 99.765625 L 58.445312 99.765625 L 58.445312 82.71875 L 41.167969 65.441406 L 41.167969 117.046875 " fill-opacity="1" fill-rule="nonzero"/></g></g><g clip-path="url(#9947742e04)"><g clip-path="url(#b3c944539a)"><path fill="#6d6a75" d="M 15.539062 26.769531 L 32.816406 44.046875 L 32.816406 27.234375 L 15.539062 9.957031 Z M 32.816406 57.09375 L 32.816406 117.046875 L 15.539062 117.046875 L 15.539062 39.816406 L 32.816406 57.09375 " fill-opacity="1" fill-rule="evenodd"/></g></g><g fill="#000000" fill-opacity="1"><g transform="translate(31.408175, 42.359852)"><g><path d="M 3.109375 3.234375 C 2.765625 2.890625 2.597656 2.570312 2.609375 2.28125 C 2.617188 1.988281 2.832031 1.632812 3.25 1.21875 C 3.53125 0.9375 3.894531 0.617188 4.34375 0.265625 C 4.800781 -0.078125 5.503906 -0.585938 6.453125 -1.265625 C 6.578125 -1.347656 7.09375 -1.71875 8 -2.375 C 8.90625 -3.03125 9.835938 -3.734375 10.796875 -4.484375 C 11.617188 -5.117188 12.21875 -5.625 12.59375 -6 C 13 -6.40625 13.050781 -6.757812 12.75 -7.0625 C 12.53125 -7.28125 12.128906 -7.441406 11.546875 -7.546875 C 10.960938 -7.648438 10.207031 -7.632812 9.28125 -7.5 C 8.976562 -7.445312 8.75 -7.5 8.59375 -7.65625 C 8.46875 -7.78125 8.414062 -7.953125 8.4375 -8.171875 C 8.46875 -8.398438 8.5625 -8.59375 8.71875 -8.75 C 8.863281 -8.894531 9.035156 -9.007812 9.234375 -9.09375 C 9.429688 -9.175781 9.703125 -9.253906 10.046875 -9.328125 C 11.097656 -9.484375 12.066406 -9.453125 12.953125 -9.234375 C 13.835938 -9.015625 14.578125 -8.609375 15.171875 -8.015625 C 15.671875 -7.515625 15.894531 -6.984375 15.84375 -6.421875 C 15.789062 -5.859375 15.46875 -5.28125 14.875 -4.6875 C 14.34375 -4.15625 13.503906 -3.460938 12.359375 -2.609375 C 14.160156 -3.492188 15.757812 -3.9375 17.15625 -3.9375 C 18.550781 -3.9375 19.722656 -3.460938 20.671875 -2.515625 C 21.421875 -1.765625 21.769531 -0.988281 21.71875 -0.1875 C 21.675781 0.601562 21.300781 1.351562 20.59375 2.0625 C 20.1875 2.46875 19.640625 2.898438 18.953125 3.359375 L 14.21875 6.4375 C 13.664062 6.800781 13.222656 7.148438 12.890625 7.484375 C 12.503906 7.867188 12.304688 8.242188 12.296875 8.609375 C 12.296875 8.984375 12.453125 9.328125 12.765625 9.640625 C 13.066406 9.941406 13.460938 10.132812 13.953125 10.21875 C 14.441406 10.300781 15.113281 10.3125 15.96875 10.25 C 16.195312 10.226562 16.378906 10.285156 16.515625 10.421875 C 16.640625 10.546875 16.679688 10.695312 16.640625 10.875 C 16.597656 11.050781 16.484375 11.234375 16.296875 11.421875 C 15.941406 11.773438 15.570312 11.96875 15.1875 12 C 14.132812 12.09375 13.242188 12.039062 12.515625 11.84375 C 11.785156 11.644531 11.171875 11.296875 10.671875 10.796875 C 9.890625 10.015625 9.507812 9.175781 9.53125 8.28125 C 9.550781 7.382812 9.945312 6.550781 10.71875 5.78125 C 11.019531 5.476562 11.367188 5.171875 11.765625 4.859375 C 12.171875 4.554688 12.710938 4.191406 13.390625 3.765625 L 16.4375 1.8125 C 16.53125 1.738281 16.707031 1.625 16.96875 1.46875 C 17.226562 1.3125 17.460938 1.148438 17.671875 0.984375 C 17.890625 0.828125 18.09375 0.65625 18.28125 0.46875 C 18.570312 0.175781 18.71875 -0.132812 18.71875 -0.46875 C 18.726562 -0.8125 18.585938 -1.128906 18.296875 -1.421875 C 17.734375 -1.984375 16.890625 -2.242188 15.765625 -2.203125 C 14.640625 -2.160156 13.191406 -1.722656 11.421875 -0.890625 C 9.648438 -0.0546875 7.625 1.238281 5.34375 3 C 4.8125 3.40625 4.394531 3.632812 4.09375 3.6875 C 3.789062 3.738281 3.460938 3.585938 3.109375 3.234375 Z M 3.109375 3.234375 "/></g></g></g><g fill="#000000" fill-opacity="1"><g transform="translate(43.50127, 54.452947)"><g><path d="M 11.84375 3.4375 C 11.957031 3.550781 11.984375 3.695312 11.921875 3.875 C 11.867188 4.0625 11.75 4.25 11.5625 4.4375 C 11.132812 4.863281 10.742188 4.984375 10.390625 4.796875 C 9.660156 4.441406 8.953125 3.953125 8.265625 3.328125 C 7.316406 3.921875 6.359375 4.191406 5.390625 4.140625 C 4.429688 4.097656 3.625 3.75 2.96875 3.09375 C 2.425781 2.550781 2.09375 1.953125 1.96875 1.296875 C 1.84375 0.640625 1.894531 0 2.125 -0.625 C 2.363281 -1.257812 2.742188 -1.835938 3.265625 -2.359375 C 3.953125 -3.046875 4.695312 -3.523438 5.5 -3.796875 C 6.3125 -4.078125 7.101562 -4.140625 7.875 -3.984375 C 8.644531 -3.828125 9.3125 -3.46875 9.875 -2.90625 C 10.570312 -2.207031 10.890625 -1.40625 10.828125 -0.5 C 10.773438 0.394531 10.4375 1.226562 9.8125 2 C 10.257812 2.40625 10.859375 2.828125 11.609375 3.265625 C 11.703125 3.316406 11.78125 3.375 11.84375 3.4375 Z M 4.53125 1.78125 C 4.8125 2.0625 5.179688 2.191406 5.640625 2.171875 C 6.097656 2.148438 6.582031 1.945312 7.09375 1.5625 C 7 1.09375 7.03125 0.625 7.1875 0.15625 C 7.351562 -0.300781 7.609375 -0.703125 7.953125 -1.046875 C 8.097656 -1.191406 8.257812 -1.320312 8.4375 -1.4375 L 8.375 -1.5 C 8.007812 -1.863281 7.53125 -1.988281 6.9375 -1.875 C 6.351562 -1.769531 5.738281 -1.394531 5.09375 -0.75 C 4.59375 -0.25 4.304688 0.226562 4.234375 0.6875 C 4.160156 1.144531 4.257812 1.507812 4.53125 1.78125 Z M 4.53125 1.78125 "/></g></g></g><g fill="#000000" fill-opacity="1"><g transform="translate(49.670939, 60.622616)"><g><path d="M 11.578125 3.265625 C 11.617188 3.285156 11.671875 3.328125 11.734375 3.390625 C 11.867188 3.523438 11.925781 3.671875 11.90625 3.828125 C 11.894531 3.992188 11.8125 4.15625 11.65625 4.3125 C 11.363281 4.601562 11.082031 4.769531 10.8125 4.8125 C 10.550781 4.863281 10.28125 4.820312 10 4.6875 C 9.4375 4.394531 8.914062 4.007812 8.4375 3.53125 C 8.039062 3.132812 7.710938 2.703125 7.453125 2.234375 C 6.773438 2.410156 6.046875 2.566406 5.265625 2.703125 C 4.390625 2.847656 3.722656 2.882812 3.265625 2.8125 C 2.804688 2.738281 2.40625 2.53125 2.0625 2.1875 C 1.6875 1.8125 1.535156 1.367188 1.609375 0.859375 C 1.691406 0.359375 2.019531 -0.226562 2.59375 -0.90625 C 3.769531 -2.289062 4.835938 -3.460938 5.796875 -4.421875 L 6.265625 -4.890625 C 6.578125 -5.179688 6.867188 -5.3125 7.140625 -5.28125 C 7.410156 -5.25 7.703125 -5.078125 8.015625 -4.765625 C 8.253906 -4.523438 8.375 -4.296875 8.375 -4.078125 C 8.382812 -3.867188 8.265625 -3.640625 8.015625 -3.390625 C 6.960938 -2.335938 5.664062 -0.90625 4.125 0.90625 C 5.488281 0.644531 6.550781 0.40625 7.3125 0.1875 C 7.4375 -0.207031 7.679688 -0.585938 8.046875 -0.953125 C 8.347656 -1.253906 8.710938 -1.484375 9.140625 -1.640625 C 9.578125 -1.804688 10.003906 -1.863281 10.421875 -1.8125 C 10.835938 -1.757812 11.195312 -1.582031 11.5 -1.28125 C 11.769531 -1.007812 11.890625 -0.695312 11.859375 -0.34375 C 11.835938 0 11.648438 0.347656 11.296875 0.703125 C 10.878906 1.117188 10.300781 1.476562 9.5625 1.78125 C 9.925781 2.125 10.457031 2.519531 11.15625 2.96875 Z M 11.578125 3.265625 "/></g></g></g><g fill="#000000" fill-opacity="1"><g transform="translate(55.813248, 66.764925)"><g><path d="M 9.8125 3.71875 C 9.925781 3.832031 9.960938 3.976562 9.921875 4.15625 C 9.878906 4.332031 9.765625 4.515625 9.578125 4.703125 C 9.210938 5.066406 8.847656 5.265625 8.484375 5.296875 C 7.722656 5.367188 6.863281 5.269531 5.90625 5 C 4.945312 4.726562 4.113281 4.238281 3.40625 3.53125 C 2.445312 2.570312 1.960938 1.570312 1.953125 0.53125 C 1.941406 -0.507812 2.390625 -1.484375 3.296875 -2.390625 C 3.929688 -3.023438 4.648438 -3.476562 5.453125 -3.75 C 6.253906 -4.019531 7.050781 -4.082031 7.84375 -3.9375 C 8.632812 -3.789062 9.328125 -3.421875 9.921875 -2.828125 C 10.441406 -2.304688 10.703125 -1.722656 10.703125 -1.078125 C 10.710938 -0.441406 10.453125 0.140625 9.921875 0.671875 C 9.285156 1.304688 8.515625 1.625 7.609375 1.625 C 6.703125 1.625 5.582031 1.207031 4.25 0.375 C 4.050781 1.03125 4.273438 1.679688 4.921875 2.328125 C 5.335938 2.742188 5.953125 3.066406 6.765625 3.296875 C 7.578125 3.523438 8.40625 3.601562 9.25 3.53125 C 9.476562 3.507812 9.664062 3.570312 9.8125 3.71875 Z M 8.34375 -1.71875 C 8.007812 -2.050781 7.53125 -2.140625 6.90625 -1.984375 C 6.28125 -1.828125 5.691406 -1.472656 5.140625 -0.921875 L 5.109375 -0.890625 C 5.773438 -0.472656 6.390625 -0.238281 6.953125 -0.1875 C 7.515625 -0.132812 7.96875 -0.28125 8.3125 -0.625 C 8.476562 -0.789062 8.566406 -0.972656 8.578125 -1.171875 C 8.585938 -1.367188 8.507812 -1.550781 8.34375 -1.71875 Z M 8.34375 -1.71875 "/></g></g></g><g fill="#000000" fill-opacity="1"><g transform="translate(61.18948, 72.141157)"><g><path d="M 8.890625 2.796875 C 9.003906 2.910156 9.039062 3.054688 9 3.234375 C 8.957031 3.410156 8.84375 3.59375 8.65625 3.78125 C 8.289062 4.144531 7.925781 4.34375 7.5625 4.375 C 6.675781 4.46875 5.847656 4.4375 5.078125 4.28125 C 4.304688 4.125 3.628906 3.753906 3.046875 3.171875 C 2.242188 2.367188 2.015625 1.410156 2.359375 0.296875 C 2.703125 -0.816406 3.453125 -1.953125 4.609375 -3.109375 C 5.722656 -4.222656 7.128906 -5.34375 8.828125 -6.46875 C 10.535156 -7.601562 12.179688 -8.398438 13.765625 -8.859375 C 15.359375 -9.328125 16.546875 -9.171875 17.328125 -8.390625 C 17.753906 -7.960938 17.890625 -7.421875 17.734375 -6.765625 C 17.578125 -6.109375 17.117188 -5.398438 16.359375 -4.640625 C 15.273438 -3.554688 13.71875 -2.597656 11.6875 -1.765625 C 9.65625 -0.929688 7.421875 -0.328125 4.984375 0.046875 C 4.671875 0.484375 4.507812 0.851562 4.5 1.15625 C 4.488281 1.457031 4.601562 1.726562 4.84375 1.96875 C 5.21875 2.34375 5.648438 2.5625 6.140625 2.625 C 6.640625 2.695312 7.367188 2.691406 8.328125 2.609375 C 8.566406 2.597656 8.753906 2.660156 8.890625 2.796875 Z M 15.65625 -7.34375 C 15.445312 -7.550781 14.832031 -7.410156 13.8125 -6.921875 C 12.789062 -6.429688 11.617188 -5.722656 10.296875 -4.796875 C 8.972656 -3.867188 7.785156 -2.898438 6.734375 -1.890625 C 8.453125 -2.316406 10.039062 -2.875 11.5 -3.5625 C 12.957031 -4.25 14.128906 -5.035156 15.015625 -5.921875 C 15.703125 -6.609375 15.914062 -7.082031 15.65625 -7.34375 Z M 15.65625 -7.34375 "/></g></g></g><g fill="#000000" fill-opacity="1"><g transform="translate(65.649153, 76.60083)"><g><path d="M 22.859375 0.140625 C 23.085938 0.492188 23.203125 0.804688 23.203125 1.078125 C 23.210938 1.359375 23.125 1.59375 22.9375 1.78125 C 22.632812 2.082031 22.328125 2.210938 22.015625 2.171875 C 21.710938 2.140625 21.394531 1.925781 21.0625 1.53125 C 20.300781 0.644531 19.703125 -0.0351562 19.265625 -0.515625 C 18.835938 -1.003906 18.25 -1.625 17.5 -2.375 C 15.488281 -1.03125 13.492188 0.335938 11.515625 1.734375 C 10.796875 2.265625 9.972656 2.882812 9.046875 3.59375 C 8.117188 4.300781 7.382812 4.882812 6.84375 5.34375 C 6.570312 5.59375 6.265625 5.6875 5.921875 5.625 C 5.578125 5.5625 5.265625 5.390625 4.984375 5.109375 C 4.679688 4.804688 4.515625 4.5 4.484375 4.1875 C 4.460938 3.882812 4.578125 3.609375 4.828125 3.359375 C 5.035156 3.148438 5.429688 2.828125 6.015625 2.390625 C 6.597656 1.953125 7.207031 1.5 7.84375 1.03125 C 8.507812 0.570312 9.066406 0.171875 9.515625 -0.171875 C 10.328125 -0.773438 11.132812 -1.347656 11.9375 -1.890625 C 12.75 -2.441406 13.523438 -2.960938 14.265625 -3.453125 C 14.441406 -3.566406 14.632812 -3.691406 14.84375 -3.828125 C 15.050781 -3.960938 15.289062 -4.125 15.5625 -4.3125 C 14.632812 -5.175781 13.851562 -5.800781 13.21875 -6.1875 C 12.59375 -6.582031 12.066406 -6.78125 11.640625 -6.78125 C 11.210938 -6.78125 10.832031 -6.613281 10.5 -6.28125 C 10.1875 -5.96875 9.972656 -5.578125 9.859375 -5.109375 C 9.847656 -5.015625 9.804688 -4.929688 9.734375 -4.859375 C 9.554688 -4.679688 9.289062 -4.617188 8.9375 -4.671875 C 8.582031 -4.722656 8.289062 -4.863281 8.0625 -5.09375 C 7.914062 -5.238281 7.835938 -5.410156 7.828125 -5.609375 C 7.804688 -5.941406 7.875 -6.3125 8.03125 -6.71875 C 8.195312 -7.132812 8.460938 -7.523438 8.828125 -7.890625 C 9.609375 -8.671875 10.484375 -9.035156 11.453125 -8.984375 C 12.429688 -8.941406 13.550781 -8.515625 14.8125 -7.703125 C 16.070312 -6.890625 17.507812 -5.675781 19.125 -4.0625 C 20.125 -3.0625 20.90625 -2.238281 21.46875 -1.59375 C 22.039062 -0.957031 22.503906 -0.378906 22.859375 0.140625 Z M 22.859375 0.140625 "/></g></g></g><g fill="#000000" fill-opacity="1"><g transform="translate(75.184093, 86.135771)"><g><path d="M 9.8125 3.71875 C 9.925781 3.832031 9.960938 3.976562 9.921875 4.15625 C 9.878906 4.332031 9.765625 4.515625 9.578125 4.703125 C 9.210938 5.066406 8.847656 5.265625 8.484375 5.296875 C 7.722656 5.367188 6.863281 5.269531 5.90625 5 C 4.945312 4.726562 4.113281 4.238281 3.40625 3.53125 C 2.445312 2.570312 1.960938 1.570312 1.953125 0.53125 C 1.941406 -0.507812 2.390625 -1.484375 3.296875 -2.390625 C 3.929688 -3.023438 4.648438 -3.476562 5.453125 -3.75 C 6.253906 -4.019531 7.050781 -4.082031 7.84375 -3.9375 C 8.632812 -3.789062 9.328125 -3.421875 9.921875 -2.828125 C 10.441406 -2.304688 10.703125 -1.722656 10.703125 -1.078125 C 10.710938 -0.441406 10.453125 0.140625 9.921875 0.671875 C 9.285156 1.304688 8.515625 1.625 7.609375 1.625 C 6.703125 1.625 5.582031 1.207031 4.25 0.375 C 4.050781 1.03125 4.273438 1.679688 4.921875 2.328125 C 5.335938 2.742188 5.953125 3.066406 6.765625 3.296875 C 7.578125 3.523438 8.40625 3.601562 9.25 3.53125 C 9.476562 3.507812 9.664062 3.570312 9.8125 3.71875 Z M 8.34375 -1.71875 C 8.007812 -2.050781 7.53125 -2.140625 6.90625 -1.984375 C 6.28125 -1.828125 5.691406 -1.472656 5.140625 -0.921875 L 5.109375 -0.890625 C 5.773438 -0.472656 6.390625 -0.238281 6.953125 -0.1875 C 7.515625 -0.132812 7.96875 -0.28125 8.3125 -0.625 C 8.476562 -0.789062 8.566406 -0.972656 8.578125 -1.171875 C 8.585938 -1.367188 8.507812 -1.550781 8.34375 -1.71875 Z M 8.34375 -1.71875 "/></g></g></g><g fill="#000000" fill-opacity="1"><g transform="translate(80.560325, 91.512003)"><g><path d="M 2.28125 2.40625 C 1.707031 1.832031 1.453125 1.171875 1.515625 0.421875 C 1.585938 -0.316406 1.960938 -1.023438 2.640625 -1.703125 C 3.367188 -2.429688 4.226562 -2.953125 5.21875 -3.265625 C 6.207031 -3.578125 7.175781 -3.644531 8.125 -3.46875 C 9.082031 -3.300781 9.878906 -2.898438 10.515625 -2.265625 C 10.710938 -2.066406 10.804688 -1.894531 10.796875 -1.75 C 10.796875 -1.613281 10.71875 -1.414062 10.5625 -1.15625 C 10.789062 -1.007812 11.007812 -0.832031 11.21875 -0.625 C 11.664062 -0.175781 11.734375 0.203125 11.421875 0.515625 C 11.222656 0.710938 10.691406 1.097656 9.828125 1.671875 C 8.585938 2.515625 7.757812 3.144531 7.34375 3.5625 C 7.195312 3.707031 7.113281 3.847656 7.09375 3.984375 C 7.082031 4.128906 7.132812 4.257812 7.25 4.375 C 7.425781 4.550781 7.75 4.648438 8.21875 4.671875 C 8.6875 4.691406 9.378906 4.660156 10.296875 4.578125 C 10.523438 4.554688 10.710938 4.617188 10.859375 4.765625 C 10.972656 4.878906 11.007812 5.023438 10.96875 5.203125 C 10.9375 5.390625 10.828125 5.578125 10.640625 5.765625 C 10.273438 6.128906 9.90625 6.320312 9.53125 6.34375 C 8.6875 6.4375 7.894531 6.429688 7.15625 6.328125 C 6.414062 6.222656 5.851562 5.976562 5.46875 5.59375 C 5.164062 5.289062 4.988281 4.910156 4.9375 4.453125 C 4.882812 3.992188 4.972656 3.523438 5.203125 3.046875 C 3.972656 3.335938 3 3.125 2.28125 2.40625 Z M 4.140625 1.515625 C 4.347656 1.722656 4.65625 1.796875 5.0625 1.734375 C 5.476562 1.679688 5.925781 1.5 6.40625 1.1875 L 9.4375 -0.8125 C 9.039062 -1.1875 8.539062 -1.394531 7.9375 -1.4375 C 7.34375 -1.488281 6.722656 -1.382812 6.078125 -1.125 C 5.429688 -0.863281 4.847656 -0.472656 4.328125 0.046875 C 4.046875 0.328125 3.894531 0.59375 3.875 0.84375 C 3.851562 1.09375 3.941406 1.316406 4.140625 1.515625 Z M 4.140625 1.515625 "/></g></g></g></svg>