<svg xmlns="http://www.w3.org/2000/svg" viewBox = "0 0 550 550" width="150" height="150">

<g fill="#000000" fill-opacity="0.00" stroke="None">
<path d="
M 0.00 266.00 
C 5.11 250.80 16.80 238.82 19.33 222.33 C 21.86 205.84 12.97 180.18 22.31 165.31 C 31.64 150.43 44.37 146.92 55.25 134.25 C 66.12 121.58 65.79 103.73 73.77 89.77 C 81.75 75.81 96.59 66.77 113.22 65.22 C 129.86 63.68 137.83 46.50 150.00 38.00
C 150.23 37.84 150.00 37.00 150.00 37.00
C 148.77 34.93 151.37 31.96 153.00 33.00
C 153.36 33.23 154.00 33.00 154.00 33.00
C 167.74 13.34 191.24 17.83 212.00 20.00 C 232.76 22.17 248.81 5.32 267.00 0.00
L 0.00 0.00
L 0.00 266.00
M 191.00 16.00 
C 187.58 18.21 182.18 16.42 178.00 17.00
C 181.42 14.79 186.82 16.58 191.00 16.00
M 221.00 18.00 
C 217.58 20.21 212.18 18.42 208.00 19.00
C 211.42 16.79 216.82 18.58 221.00 18.00
M 17.00 187.00 
C 18.21 193.27 14.10 190.91 17.00 187.00
M 19.00 209.00 
C 19.00 212.67 19.00 216.33 19.00 220.00
C 17.44 217.39 17.28 211.54 19.00 209.00 Z"/>
</g>
<g fill="#01562C" fill-opacity="0.98" stroke="None">
<path d="
M 154.00 33.00 
C 152.60 34.88 151.61 36.45 150.00 38.00
C 137.83 46.50 129.86 63.68 113.22 65.22 C 96.59 66.77 81.75 75.81 73.77 89.77 C 65.79 103.73 66.12 121.58 55.25 134.25 C 44.37 146.92 31.64 150.43 22.31 165.31 C 12.97 180.18 21.86 205.84 19.33 222.33 C 16.80 238.82 5.11 250.80 0.00 266.00
L 0.00 283.00
C 7.84 304.44 26.27 324.58 19.00 350.00 C 11.73 375.42 27.11 395.39 47.75 408.25 C 68.38 421.12 63.12 450.91 78.00 467.00
C 79.59 468.72 81.54 470.13 83.00 472.00
C 83.32 472.20 83.74 472.77 84.00 473.00
C 90.78 478.99 100.41 480.75 109.02 482.98 C 117.64 485.20 126.06 489.76 134.00 494.00
C 136.13 495.52 138.84 497.63 140.00 500.00
C 140.20 500.40 140.00 501.00 140.00 501.00
C 144.24 505.06 148.31 510.26 152.00 515.00
C 152.21 515.27 152.80 515.68 153.00 516.00
C 155.99 518.33 158.71 521.06 161.00 524.00
C 161.32 524.20 161.74 524.77 162.00 525.00
C 177.53 538.72 201.78 527.96 220.00 530.00 C 238.22 532.04 250.31 545.04 267.00 550.00
L 271.00 550.00
C 273.70 548.47 278.57 548.69 282.00 549.00
C 299.37 548.98 312.85 529.65 331.00 530.00 C 349.15 530.36 375.75 538.51 389.00 523.00
C 391.19 520.44 393.49 518.15 396.00 516.00
C 400.52 512.14 404.14 507.28 408.00 503.00
C 409.07 501.81 409.99 500.16 411.00 499.00
C 426.54 481.23 454.48 485.03 470.75 468.75 C 487.02 452.47 479.66 421.99 501.00 409.00
C 501.48 408.71 502.64 408.33 503.00 408.00
C 507.27 404.03 512.16 400.50 516.00 396.00
C 518.18 393.44 520.58 391.21 523.00 389.00
C 537.67 373.29 529.23 350.38 530.00 331.00 C 530.77 311.62 545.30 299.53 550.00 282.00
L 550.00 278.00
C 548.57 276.97 548.31 272.96 550.00 272.00
L 550.00 268.00
C 541.57 246.04 523.62 225.09 530.99 198.99 C 538.36 172.89 520.80 154.05 500.75 140.25 C 480.71 126.45 485.90 97.20 470.25 80.75 C 454.60 64.30 424.31 69.09 410.25 49.75 C 396.19 30.42 379.14 11.70 352.98 18.98 C 326.81 26.26 304.77 9.33 283.00 0.00
L 267.00 0.00
C 248.81 5.32 232.76 22.17 212.00 20.00 C 191.24 17.83 167.74 13.34 154.00 33.00
M 431.00 104.00 
C 508.52 170.25 532.22 284.56 493.07 376.07 C 453.92 467.59 362.86 521.96 265.00 520.00
C 262.59 519.95 259.70 519.16 258.00 519.00
C 139.89 516.64 38.00 405.29 38.00 289.00
C 37.60 284.91 37.61 280.02 38.00 276.00
C 38.00 219.19 61.59 166.61 98.00 124.00
C 103.43 117.64 109.70 111.39 116.00 106.00
C 160.98 67.56 211.94 44.73 272.00 44.00 C 332.06 43.27 385.90 65.46 431.00 104.00 Z"/>
</g>
<g fill="#000000" fill-opacity="0.00" stroke="None">
<path d="
M 550.00 268.00 
L 550.00 0.00
L 283.00 0.00
C 304.77 9.33 326.81 26.26 352.98 18.98 C 379.14 11.70 396.19 30.42 410.25 49.75 C 424.31 69.09 454.60 64.30 470.25 80.75 C 485.90 97.20 480.71 126.45 500.75 140.25 C 520.80 154.05 538.36 172.89 530.99 198.99 C 523.62 225.09 541.57 246.04 550.00 268.00
M 371.00 16.00 
C 367.58 18.21 362.18 16.42 358.00 17.00
C 361.42 14.79 366.82 16.58 371.00 16.00
M 341.00 18.00 
C 337.91 20.19 332.84 18.43 329.00 19.00
C 332.09 16.81 337.16 18.57 341.00 18.00 Z"/>
</g>
<g fill="#005000" fill-opacity="0.01" stroke="None">
<path d="
M 191.00 16.00 
C 186.82 16.58 181.42 14.79 178.00 17.00
C 182.18 16.42 187.58 18.21 191.00 16.00 Z"/>
</g>
<g fill="#005100" fill-opacity="0.01" stroke="None">
<path d="
M 371.00 16.00 
C 366.82 16.58 361.42 14.79 358.00 17.00
C 362.18 16.42 367.58 18.21 371.00 16.00 Z"/>
</g>
<g fill="#004E00" fill-opacity="0.01" stroke="None">
<path d="
M 221.00 18.00 
C 216.82 18.58 211.42 16.79 208.00 19.00
C 212.18 18.42 217.58 20.21 221.00 18.00 Z"/>
</g>
<g fill="#004D00" fill-opacity="0.01" stroke="None">
<path d="
M 341.00 18.00 
C 337.16 18.57 332.09 16.81 329.00 19.00
C 332.84 18.43 337.91 20.19 341.00 18.00 Z"/>
</g>
<g fill="#002301" fill-opacity="0.01" stroke="None">
<path d="
M 150.00 37.00 
C 150.85 35.86 152.00 34.15 153.00 33.00
C 151.37 31.96 148.77 34.93 150.00 37.00 Z"/>
</g>
<g fill="#00532B" fill-opacity="0.45" stroke="None">
<path d="
M 150.00 37.00 
C 150.00 37.00 150.23 37.84 150.00 38.00
C 151.61 36.45 152.60 34.88 154.00 33.00
C 154.00 33.00 153.36 33.23 153.00 33.00
C 152.00 34.15 150.85 35.86 150.00 37.00 Z"/>
</g>
<g fill="#FE7D02" fill-opacity="1.00" stroke="None">
<path d="
M 116.00 106.00 
C 111.93 110.07 107.70 114.67 104.00 119.00
C 63.96 165.86 39.11 227.63 44.00 290.00 C 48.89 352.37 73.94 403.05 119.25 445.75 C 164.56 488.45 228.29 509.94 290.00 506.00 C 351.71 502.06 402.74 475.65 445.75 430.75 C 488.76 385.85 508.03 322.67 505.02 260.98 C 502.01 199.28 474.76 147.76 431.00 104.00
C 385.90 65.46 332.06 43.27 272.00 44.00 C 211.94 44.73 160.98 67.56 116.00 106.00
M 357.00 89.00 
C 368.84 94.23 371.80 110.84 383.00 119.00
C 393.47 123.84 407.15 122.17 417.00 129.00
C 436.75 136.33 428.89 164.83 441.00 178.00
C 446.32 181.69 452.40 185.75 458.00 189.00
C 479.67 201.60 467.85 222.65 467.00 241.00 C 466.15 259.35 494.65 272.70 485.07 291.07 C 475.50 309.45 460.99 319.85 469.78 341.22 C 478.57 362.60 463.38 375.79 445.77 384.77 C 428.16 393.75 437.18 423.37 423.25 434.25 C 409.31 445.12 383.09 437.08 374.75 456.75 C 366.40 476.41 349.31 485.73 328.99 477.01 C 308.67 468.29 296.33 489.78 278.33 494.33 C 260.32 498.87 246.44 470.72 228.33 475.33 C 210.22 479.94 186.58 485.06 178.25 462.75 C 169.92 440.45 151.57 443.75 132.32 437.68 C 113.08 431.61 121.14 400.80 108.75 389.25 C 96.36 377.70 71.37 370.49 78.33 348.33 C 85.29 326.17 81.63 314.20 67.08 295.92 C 52.53 277.64 77.56 264.39 81.77 246.77 C 85.98 229.15 68.39 203.45 89.00 192.00
C 94.06 186.20 102.04 182.09 108.00 178.00
C 113.17 172.62 115.81 164.44 116.33 157.33 C 116.85 150.22 118.59 151.45 118.93 145.93 C 119.26 140.41 121.85 139.74 122.92 134.92 C 124.00 130.11 130.92 131.43 129.00 132.00
C 138.44 119.92 157.88 127.18 168.00 118.00
C 178.75 108.26 181.85 90.39 196.00 87.00
C 212.48 79.12 237.45 98.67 252.23 82.23 C 267.01 65.79 285.26 69.59 300.08 83.92 C 314.91 98.25 341.49 77.47 357.00 89.00 Z"/>
</g>
<g fill="#93183A" fill-opacity="1.00" stroke="None">
<path d="
M 196.00 87.00 
C 182.84 93.29 180.09 110.36 168.00 118.00
C 157.88 127.18 138.44 119.92 129.00 132.00
C 123.38 139.19 123.60 149.26 122.01 158.01 C 120.41 166.75 115.34 172.96 108.00 178.00
C 102.04 182.09 94.06 186.20 89.00 192.00
C 79.92 202.42 88.37 217.36 89.00 229.00
C 89.47 231.91 89.60 234.10 89.00 237.00
C 86.15 250.78 70.83 260.40 71.00 275.00 C 71.17 289.60 86.11 299.04 89.00 313.00
C 89.61 315.95 89.46 318.15 89.00 321.00
C 88.14 336.83 80.32 356.76 98.70 365.30 C 117.08 373.84 122.03 383.83 123.98 403.02 C 125.92 422.22 144.10 426.37 161.22 428.78 C 178.34 431.18 179.84 450.80 192.25 460.75 C 204.65 470.71 230.43 455.05 243.68 462.32 C 256.93 469.60 270.76 485.38 285.69 475.69 C 300.63 466.01 312.29 454.92 330.67 462.33 C 349.05 469.73 361.65 460.73 369.77 443.77 C 377.89 426.81 395.54 428.44 412.22 423.22 C 428.91 418.01 423.27 392.19 431.92 379.92 C 440.58 367.66 460.44 365.09 464.00 349.00
C 464.26 346.47 464.17 343.54 464.00 341.00
C 462.96 325.78 456.61 307.37 469.25 295.25 C 481.90 283.14 482.85 267.57 469.75 255.25 C 456.64 242.93 462.93 224.67 464.00 209.00
C 464.17 206.44 464.23 203.55 464.00 201.00
C 463.08 196.54 461.66 192.25 458.00 189.00
C 452.40 185.75 446.32 181.69 441.00 178.00
C 433.12 172.54 428.46 165.25 427.07 155.93 C 425.69 146.61 425.48 134.87 417.00 129.00
C 407.15 122.17 393.47 123.84 383.00 119.00
C 370.05 113.01 368.04 97.21 357.00 89.00
C 341.49 77.47 314.91 98.25 300.08 83.92 C 285.26 69.59 267.01 65.79 252.23 82.23 C 237.45 98.67 212.48 79.12 196.00 87.00
M 282.00 441.00 
C 277.60 441.43 272.34 441.42 268.00 441.00
C 179.13 441.00 106.34 359.89 108.00 272.00 C 109.66 184.11 184.71 108.22 274.00 108.00 C 363.29 107.78 438.52 181.57 441.00 270.00 C 443.48 358.43 372.22 441.00 282.00 441.00 Z"/>
</g>
<g fill="#F7B306" fill-opacity="1.00" stroke="None">
<path d="
M 168.00 118.00 
C 180.09 110.36 182.84 93.29 196.00 87.00
C 181.85 90.39 178.75 108.26 168.00 118.00 Z"/>
</g>
<g fill="#F5B208" fill-opacity="1.00" stroke="None">
<path d="
M 357.00 89.00 
C 368.04 97.21 370.05 113.01 383.00 119.00
C 371.80 110.84 368.84 94.23 357.00 89.00 Z"/>
</g>
<g fill="#FABF01" fill-opacity="1.00" stroke="None">
<path d="
M 104.00 119.00 
C 102.24 120.76 99.71 122.29 98.00 124.00
C 61.59 166.61 38.00 219.19 38.00 276.00
C 38.00 280.33 38.00 284.67 38.00 289.00
C 38.00 405.29 139.89 516.64 258.00 519.00
C 260.41 519.05 263.30 519.84 265.00 520.00
C 362.86 521.96 453.92 467.59 493.07 376.07 C 532.22 284.56 508.52 170.25 431.00 104.00
C 474.76 147.76 502.01 199.28 505.02 260.98 C 508.03 322.67 488.76 385.85 445.75 430.75 C 402.74 475.65 351.71 502.06 290.00 506.00 C 228.29 509.94 164.56 488.45 119.25 445.75 C 73.94 403.05 48.89 352.37 44.00 290.00 C 39.11 227.63 63.96 165.86 104.00 119.00 Z"/>
</g>
<g fill="#7A8B18" fill-opacity="1.00" stroke="None">
<path d="
M 98.00 124.00 
C 99.71 122.29 102.24 120.76 104.00 119.00
C 107.70 114.67 111.93 110.07 116.00 106.00
C 109.70 111.39 103.43 117.64 98.00 124.00 Z"/>
</g>
<g fill="#F8BA03" fill-opacity="0.93" stroke="None">
<path d="
M 268.00 441.00 
C 272.67 441.00 277.33 441.00 282.00 441.00
C 372.22 441.00 443.48 358.43 441.00 270.00 C 438.52 181.57 363.29 107.78 274.00 108.00 C 184.71 108.22 109.66 184.11 108.00 272.00 C 106.34 359.89 179.13 441.00 268.00 441.00
M 281.00 117.00 
C 289.01 117.00 296.34 117.73 304.00 119.00
C 305.14 119.19 305.30 119.78 306.00 120.00
C 314.80 122.74 324.43 123.40 333.00 127.00
C 331.17 129.42 337.74 130.26 341.77 132.57 C 345.80 134.88 349.92 134.72 355.25 138.75 C 360.57 142.79 361.78 142.21 368.75 147.25 C 375.71 152.29 384.62 160.73 390.75 167.25 C 396.89 173.76 396.17 172.73 401.00 179.00
C 401.37 179.61 401.63 180.44 402.00 181.00
C 408.47 190.69 414.07 197.41 416.00 208.00
C 420.04 207.20 422.27 216.65 424.78 223.22 C 427.28 229.80 428.94 238.61 430.78 246.22 C 432.62 253.83 432.68 264.55 433.00 273.00 C 433.32 281.45 432.54 292.09 431.02 300.02 C 429.51 307.96 428.15 316.36 425.68 323.68 C 423.20 331.00 420.46 337.61 417.23 344.23 C 414.00 350.85 410.74 356.87 406.70 362.70 C 402.65 368.53 398.96 374.10 394.25 379.25 C 389.53 384.39 384.71 388.97 379.75 393.75 C 374.79 398.54 368.81 402.37 363.25 406.25 C 357.70 410.14 351.47 415.08 346.00 414.00
C 349.47 417.61 344.30 415.21 342.00 416.00
C 345.15 419.49 336.77 420.06 332.98 421.98 C 329.18 423.89 322.53 426.48 318.00 427.00
C 317.50 427.17 316.85 427.78 316.00 428.00
C 307.80 430.09 299.65 431.45 291.00 432.00 C 282.35 432.55 271.85 433.84 263.00 433.00 C 254.15 432.16 246.39 431.04 237.98 429.02 C 229.56 427.01 226.66 424.64 218.93 423.07 C 211.19 421.50 205.51 416.01 198.00 414.00
C 198.97 410.66 189.80 409.62 184.25 404.75 C 178.70 399.87 173.04 396.84 169.00 391.00
C 167.66 390.76 168.30 391.61 167.00 391.00
C 164.13 389.64 159.37 384.79 158.00 382.00
C 157.80 381.60 158.00 381.00 158.00 381.00
C 149.67 375.18 144.97 365.56 139.70 357.30 C 134.42 349.05 128.27 338.68 126.00 329.00
C 125.89 328.53 126.00 328.00 126.00 328.00
C 121.20 322.08 121.15 312.48 119.07 304.93 C 116.99 297.37 116.55 286.03 116.00 278.00
C 115.89 276.38 115.92 274.63 116.00 273.00
C 116.44 264.33 117.01 252.47 119.33 244.33 C 121.65 236.19 121.76 225.45 127.00 219.00
C 127.24 218.70 127.00 218.00 127.00 218.00
C 128.27 212.60 131.76 207.74 134.00 203.00
C 134.41 202.14 134.51 200.95 135.00 200.00
C 136.12 197.86 138.36 192.44 140.00 196.00
C 141.14 185.96 150.42 176.28 158.75 166.75 C 167.08 157.23 177.00 149.85 187.70 142.70 C 198.39 135.54 210.13 129.32 223.07 125.07 C 236.01 120.83 253.45 116.60 268.00 117.00
C 272.09 116.60 276.98 116.61 281.00 117.00 Z"/>
</g>
<g fill="#C16C15" fill-opacity="0.08" stroke="None">
<path d="
M 268.00 117.00 
C 272.33 117.00 276.67 117.00 281.00 117.00
C 276.98 116.61 272.09 116.60 268.00 117.00 Z"/>
</g>
<g fill="#000000" fill-opacity="0.00" stroke="None">
<path d="
M 135.00 200.00 
C 135.05 199.82 136.95 200.48 135.69 202.70 C 134.43 204.92 133.18 203.80 134.00 203.00
C 131.76 207.74 128.27 212.60 127.00 218.00
C 130.44 215.69 127.85 223.16 127.00 219.00
C 121.76 225.45 121.65 236.19 119.33 244.33 C 117.01 252.47 116.44 264.33 116.00 273.00
C 116.02 273.87 116.01 277.21 116.00 278.00
C 116.55 286.03 116.99 297.37 119.07 304.93 C 121.15 312.48 121.20 322.08 126.00 328.00
C 126.85 323.84 129.41 331.28 126.00 329.00
C 128.27 338.68 134.42 349.05 139.70 357.30 C 144.97 365.56 149.67 375.18 158.00 381.00
C 159.57 379.35 167.39 389.39 169.00 391.00
C 173.04 396.84 178.70 399.87 184.25 404.75 C 189.80 409.62 198.97 410.66 198.00 414.00
C 205.51 416.01 211.19 421.50 218.93 423.07 C 226.66 424.64 229.56 427.01 237.98 429.02 C 246.39 431.04 254.15 432.16 263.00 433.00 C 271.85 433.84 282.35 432.55 291.00 432.00 C 299.65 431.45 307.80 430.09 316.00 428.00
C 315.61 427.90 314.17 426.57 314.00 426.00
C 315.56 425.59 316.69 426.46 318.00 427.00
C 322.53 426.48 329.18 423.89 332.98 421.98 C 336.77 420.06 345.15 419.49 342.00 416.00
C 344.30 415.21 349.47 417.61 346.00 414.00
C 351.47 415.08 357.70 410.14 363.25 406.25 C 368.81 402.37 374.79 398.54 379.75 393.75 C 384.71 388.97 389.53 384.39 394.25 379.25 C 398.96 374.10 402.65 368.53 406.70 362.70 C 410.74 356.87 414.00 350.85 417.23 344.23 C 420.46 337.61 423.20 331.00 425.68 323.68 C 428.15 316.36 429.51 307.96 431.02 300.02 C 432.54 292.09 433.32 281.45 433.00 273.00 C 432.68 264.55 432.62 253.83 430.78 246.22 C 428.94 238.61 427.28 229.80 424.78 223.22 C 422.27 216.65 420.04 207.20 416.00 208.00
C 414.07 197.41 408.47 190.69 402.00 181.00
C 403.26 182.07 396.43 177.17 401.00 179.00
C 396.17 172.73 396.89 173.76 390.75 167.25 C 384.62 160.73 375.71 152.29 368.75 147.25 C 361.78 142.21 360.57 142.79 355.25 138.75 C 349.92 134.72 345.80 134.88 341.77 132.57 C 337.74 130.26 331.17 129.42 333.00 127.00
C 324.43 123.40 314.80 122.74 306.00 120.00
C 304.63 119.97 302.72 121.96 301.00 121.00
C 301.24 119.33 303.85 120.83 304.00 119.00
C 296.34 117.73 289.01 117.00 281.00 117.00
C 276.67 117.00 272.33 117.00 268.00 117.00
C 253.45 116.60 236.01 120.83 223.07 125.07 C 210.13 129.32 198.39 135.54 187.70 142.70 C 177.00 149.85 167.08 157.23 158.75 166.75 C 150.42 176.28 141.14 185.96 140.00 196.00
C 138.36 192.44 136.12 197.86 135.00 200.00
M 267.00 118.00 
C 264.90 120.08 260.85 118.50 258.00 119.00
C 260.10 116.92 264.15 118.50 267.00 118.00
M 292.00 118.00 
C 289.90 120.08 285.85 118.50 283.00 119.00
C 285.10 116.92 289.15 118.50 292.00 118.00
M 299.00 119.00 
C 295.01 121.79 292.81 117.90 299.00 119.00
M 320.00 124.00 
C 320.74 124.74 319.18 123.18 320.00 124.00
M 160.00 168.00 
C 158.16 172.82 155.29 168.39 160.00 168.00
M 431.00 253.00 
C 432.21 259.27 428.10 256.91 431.00 253.00
M 119.00 258.00 
C 120.26 265.32 116.06 262.99 119.00 258.00
M 432.00 276.00 
C 432.00 280.00 432.00 284.00 432.00 288.00
C 429.81 284.91 431.57 279.84 431.00 276.00
C 431.00 271.33 431.00 266.67 431.00 262.00
C 433.22 265.75 431.41 271.49 432.00 276.00
M 119.00 286.00 
C 120.26 293.32 116.06 290.99 119.00 286.00
M 431.00 292.00 
C 432.21 298.27 428.11 295.91 431.00 292.00
M 125.00 319.00 
C 126.79 320.79 124.23 318.23 125.00 319.00
M 126.00 323.00 
C 126.74 323.74 125.18 322.18 126.00 323.00
M 334.00 420.00 
C 334.74 420.74 333.18 419.18 334.00 420.00
M 331.00 421.00 
C 331.74 421.74 330.18 420.18 331.00 421.00
M 326.00 423.00 
C 326.74 423.74 325.18 422.18 326.00 423.00
M 239.00 427.00 
C 239.61 427.61 237.34 425.34 239.00 427.00
M 257.00 430.00 
C 253.01 432.79 250.81 428.90 257.00 430.00
M 266.00 432.00 
C 264.05 432.32 261.96 431.76 260.00 432.00
C 261.14 430.13 264.13 431.39 266.00 431.00
C 268.26 430.59 270.72 431.31 273.00 431.00
C 271.55 432.96 268.20 431.56 266.00 432.00
M 288.00 431.00 
C 285.24 433.16 280.51 431.45 277.00 432.00
C 279.76 429.84 284.49 431.55 288.00 431.00 Z"/>
</g>
<g fill="#A69C00" fill-opacity="0.01" stroke="None">
<path d="
M 267.00 118.00 
C 264.15 118.50 260.10 116.92 258.00 119.00
C 260.85 118.50 264.90 120.08 267.00 118.00 Z"/>
</g>
<g fill="#B09C00" fill-opacity="0.01" stroke="None">
<path d="
M 292.00 118.00 
C 289.15 118.50 285.10 116.92 283.00 119.00
C 285.85 118.50 289.90 120.08 292.00 118.00 Z"/>
</g>
<g fill="#9E9000" fill-opacity="0.01" stroke="None">
<path d="
M 299.00 119.00 
C 292.81 117.90 295.01 121.79 299.00 119.00 Z"/>
</g>
<g fill="#8E7006" fill-opacity="0.02" stroke="None">
<path d="
M 306.00 120.00 
C 305.30 119.78 305.14 119.19 304.00 119.00
C 303.85 120.83 301.24 119.33 301.00 121.00
C 302.72 121.96 304.63 119.97 306.00 120.00 Z"/>
</g>
<g fill="#A9AA00" fill-opacity="0.01" stroke="None">
<path d="
M 320.00 124.00 
C 319.18 123.18 320.74 124.74 320.00 124.00 Z"/>
</g>
<g fill="#FAB904" fill-opacity="1.00" stroke="None">
<path d="
M 417.00 129.00 
C 425.48 134.87 425.69 146.61 427.07 155.93 C 428.46 165.25 433.12 172.54 441.00 178.00
C 428.89 164.83 436.75 136.33 417.00 129.00 Z"/>
</g>
<g fill="#FABA03" fill-opacity="1.00" stroke="None">
<path d="
M 108.00 178.00 
C 115.34 172.96 120.41 166.75 122.01 158.01 C 123.60 149.26 123.38 139.19 129.00 132.00
C 130.92 131.43 124.00 130.11 122.92 134.92 C 121.85 139.74 119.26 140.41 118.93 145.93 C 118.59 151.45 116.85 150.22 116.33 157.33 C 115.81 164.44 113.17 172.62 108.00 178.00 Z"/>
</g>
<g fill="#453600" fill-opacity="0.00" stroke="None">
<path d="
M 160.00 168.00 
C 155.29 168.39 158.16 172.82 160.00 168.00 Z"/>
</g>
<g fill="#664C00" fill-opacity="0.01" stroke="None">
<path d="
M 402.00 181.00 
C 401.63 180.44 401.37 179.61 401.00 179.00
C 396.43 177.17 403.26 182.07 402.00 181.00 Z"/>
</g>
<g fill="#004800" fill-opacity="0.02" stroke="None">
<path d="
M 17.00 187.00 
C 14.10 190.91 18.21 193.27 17.00 187.00 Z"/>
</g>
<g fill="#FDBE01" fill-opacity="1.00" stroke="None">
<path d="
M 464.00 201.00 
C 464.61 203.97 464.52 206.12 464.00 209.00
C 462.93 224.67 456.64 242.93 469.75 255.25 C 482.85 267.57 481.90 283.14 469.25 295.25 C 456.61 307.37 462.96 325.78 464.00 341.00
C 464.53 343.95 464.65 346.06 464.00 349.00
C 460.44 365.09 440.58 367.66 431.92 379.92 C 423.27 392.19 428.91 418.01 412.22 423.22 C 395.54 428.44 377.89 426.81 369.77 443.77 C 361.65 460.73 349.05 469.73 330.67 462.33 C 312.29 454.92 300.63 466.01 285.69 475.69 C 270.76 485.38 256.93 469.60 243.68 462.32 C 230.43 455.05 204.65 470.71 192.25 460.75 C 179.84 450.80 178.34 431.18 161.22 428.78 C 144.10 426.37 125.92 422.22 123.98 403.02 C 122.03 383.83 117.08 373.84 98.70 365.30 C 80.32 356.76 88.14 336.83 89.00 321.00
C 89.14 318.43 89.23 315.57 89.00 313.00
C 86.11 299.04 71.17 289.60 71.00 275.00 C 70.83 260.40 86.15 250.78 89.00 237.00
C 89.23 234.43 89.14 231.57 89.00 229.00
C 88.37 217.36 79.92 202.42 89.00 192.00
C 68.39 203.45 85.98 229.15 81.77 246.77 C 77.56 264.39 52.53 277.64 67.08 295.92 C 81.63 314.20 85.29 326.17 78.33 348.33 C 71.37 370.49 96.36 377.70 108.75 389.25 C 121.14 400.80 113.08 431.61 132.32 437.68 C 151.57 443.75 169.92 440.45 178.25 462.75 C 186.58 485.06 210.22 479.94 228.33 475.33 C 246.44 470.72 260.32 498.87 278.33 494.33 C 296.33 489.78 308.67 468.29 328.99 477.01 C 349.31 485.73 366.40 476.41 374.75 456.75 C 383.09 437.08 409.31 445.12 423.25 434.25 C 437.18 423.37 428.16 393.75 445.77 384.77 C 463.38 375.79 478.57 362.60 469.78 341.22 C 460.99 319.85 475.50 309.45 485.07 291.07 C 494.65 272.70 466.15 259.35 467.00 241.00 C 467.85 222.65 479.67 201.60 458.00 189.00
C 461.66 192.25 463.08 196.54 464.00 201.00 Z"/>
</g>
<g fill="#6A6A00" fill-opacity="0.00" stroke="None">
<path d="
M 134.00 203.00 
C 133.18 203.80 134.43 204.92 135.69 202.70 C 136.95 200.48 135.05 199.82 135.00 200.00
C 134.51 200.95 134.41 202.14 134.00 203.00 Z"/>
</g>
<g fill="#C46420" fill-opacity="1.00" stroke="None">
<path d="
M 464.00 209.00 
C 464.52 206.12 464.61 203.97 464.00 201.00
C 464.23 203.55 464.17 206.44 464.00 209.00 Z"/>
</g>
<g fill="#004900" fill-opacity="0.02" stroke="None">
<path d="
M 19.00 209.00 
C 17.28 211.54 17.44 217.39 19.00 220.00
C 19.00 216.33 19.00 212.67 19.00 209.00 Z"/>
</g>
<g fill="#996200" fill-opacity="0.01" stroke="None">
<path d="
M 127.00 218.00 
C 127.00 218.00 127.24 218.70 127.00 219.00
C 127.85 223.16 130.44 215.69 127.00 218.00 Z"/>
</g>
<g fill="#C86B1E" fill-opacity="1.00" stroke="None">
<path d="
M 89.00 237.00 
C 89.60 234.10 89.47 231.91 89.00 229.00
C 89.14 231.57 89.23 234.43 89.00 237.00 Z"/>
</g>
<g fill="#B79900" fill-opacity="0.01" stroke="None">
<path d="
M 431.00 253.00 
C 428.10 256.91 432.21 259.27 431.00 253.00 Z"/>
</g>
<g fill="#AB9500" fill-opacity="0.01" stroke="None">
<path d="
M 119.00 258.00 
C 116.06 262.99 120.26 265.32 119.00 258.00 Z"/>
</g>
<g fill="#C28E00" fill-opacity="0.01" stroke="None">
<path d="
M 431.00 276.00 
C 431.00 275.96 432.00 276.00 432.00 276.00
C 431.41 271.49 433.22 265.75 431.00 262.00
C 431.00 266.67 431.00 271.33 431.00 276.00 Z"/>
</g>
<g fill="#00552B" fill-opacity="0.53" stroke="None">
<path d="
M 550.00 278.00 
L 550.00 272.00
C 548.31 272.96 548.57 276.97 550.00 278.00 Z"/>
</g>
<g fill="#130D55" fill-opacity="0.01" stroke="None">
<path d="
M 116.00 278.00 
C 116.01 277.21 116.02 273.87 116.00 273.00
C 115.92 274.63 115.89 276.38 116.00 278.00 Z"/>
</g>
<g fill="#738618" fill-opacity="1.00" stroke="None">
<path d="
M 38.00 289.00 
C 38.00 284.67 38.00 280.33 38.00 276.00
C 37.61 280.02 37.60 284.91 38.00 289.00 Z"/>
</g>
<g fill="#B3A300" fill-opacity="0.01" stroke="None">
<path d="
M 432.00 276.00 
C 432.00 276.00 431.00 275.96 431.00 276.00
C 431.57 279.84 429.81 284.91 432.00 288.00
C 432.00 284.00 432.00 280.00 432.00 276.00 Z"/>
</g>
<g fill="#000000" fill-opacity="0.00" stroke="None">
<path d="
M 523.00 389.00 
C 520.77 391.38 518.25 393.75 516.00 396.00
C 512.16 400.50 507.27 404.03 503.00 408.00
C 502.79 408.29 501.57 412.90 499.00 413.00
C 498.45 411.18 500.75 410.53 501.00 409.00
C 479.66 421.99 487.02 452.47 470.75 468.75 C 454.48 485.03 426.54 481.23 411.00 499.00
C 411.47 498.06 412.69 499.89 411.24 501.25 C 409.79 502.60 408.14 502.90 408.00 503.00
C 404.14 507.28 400.52 512.14 396.00 516.00
C 393.74 518.26 391.21 520.79 389.00 523.00
C 375.75 538.51 349.15 530.36 331.00 530.00 C 312.85 529.65 299.37 548.98 282.00 549.00
C 282.00 549.00 282.00 550.00 282.00 550.00
L 550.00 550.00
L 550.00 282.00
C 545.30 299.53 530.77 311.62 530.00 331.00 C 529.23 350.38 537.67 373.29 523.00 389.00
M 524.00 391.00 
C 522.43 393.28 520.33 395.57 518.00 397.00
C 518.41 394.33 521.28 391.34 524.00 391.00
M 397.00 518.00 
C 395.43 520.28 393.33 522.57 391.00 524.00
C 391.41 521.33 394.28 518.33 397.00 518.00
M 345.00 531.00 
C 341.01 533.79 338.81 529.90 345.00 531.00
M 368.00 533.00 
C 364.01 535.79 361.81 531.90 368.00 533.00 Z"/>
</g>
<g fill="#000000" fill-opacity="0.00" stroke="None">
<path d="
M 0.00 550.00 
L 267.00 550.00
C 250.31 545.04 238.22 532.04 220.00 530.00 C 201.78 527.96 177.53 538.72 162.00 525.00
C 160.37 527.31 148.04 515.06 152.00 515.00
C 148.31 510.26 144.24 505.06 140.00 501.00
C 138.72 502.35 133.14 496.35 134.00 495.00
C 133.77 494.84 134.00 494.00 134.00 494.00
C 126.06 489.76 117.64 485.20 109.02 482.98 C 100.41 480.75 90.78 478.99 84.00 473.00
C 80.75 477.60 77.02 464.44 78.00 467.00
C 63.12 450.91 68.38 421.12 47.75 408.25 C 27.11 395.39 11.73 375.42 19.00 350.00 C 26.27 324.58 7.84 304.44 0.00 283.00
L 0.00 550.00
M 19.00 330.00 
C 19.00 333.67 19.00 337.33 19.00 341.00
C 17.44 338.39 17.28 332.54 19.00 330.00
M 17.00 357.00 
C 18.26 364.32 14.06 361.99 17.00 357.00
M 210.00 531.00 
C 204.95 533.86 202.74 529.83 210.00 531.00
M 187.00 533.00 
C 183.01 535.80 180.81 531.90 187.00 533.00 Z"/>
</g>
<g fill="#AB9500" fill-opacity="0.01" stroke="None">
<path d="
M 119.00 286.00 
C 116.06 290.99 120.26 293.32 119.00 286.00 Z"/>
</g>
<g fill="#BB9700" fill-opacity="0.01" stroke="None">
<path d="
M 431.00 292.00 
C 428.11 295.91 432.21 298.27 431.00 292.00 Z"/>
</g>
<g fill="#C86B1E" fill-opacity="1.00" stroke="None">
<path d="
M 89.00 321.00 
C 89.46 318.15 89.61 315.95 89.00 313.00
C 89.23 315.57 89.14 318.43 89.00 321.00 Z"/>
</g>
<g fill="#949400" fill-opacity="0.01" stroke="None">
<path d="
M 125.00 319.00 
C 124.23 318.23 126.79 320.79 125.00 319.00 Z"/>
</g>
<g fill="#A9AA00" fill-opacity="0.01" stroke="None">
<path d="
M 126.00 323.00 
C 125.18 322.18 126.74 323.74 126.00 323.00 Z"/>
</g>
<g fill="#8A6300" fill-opacity="0.01" stroke="None">
<path d="
M 126.00 328.00 
C 126.00 328.00 125.89 328.53 126.00 329.00
C 129.41 331.28 126.85 323.84 126.00 328.00 Z"/>
</g>
<g fill="#004B00" fill-opacity="0.01" stroke="None">
<path d="
M 19.00 330.00 
C 17.28 332.54 17.44 338.39 19.00 341.00
C 19.00 337.33 19.00 333.67 19.00 330.00 Z"/>
</g>
<g fill="#C36420" fill-opacity="1.00" stroke="None">
<path d="
M 464.00 349.00 
C 464.65 346.06 464.53 343.95 464.00 341.00
C 464.17 343.54 464.26 346.47 464.00 349.00 Z"/>
</g>
<g fill="#004A00" fill-opacity="0.02" stroke="None">
<path d="
M 17.00 357.00 
C 14.06 361.99 18.26 364.32 17.00 357.00 Z"/>
</g>
<g fill="#3B3400" fill-opacity="0.01" stroke="None">
<path d="
M 158.00 381.00 
C 158.00 381.00 157.80 381.60 158.00 382.00
C 161.41 384.38 163.81 388.79 167.00 391.00
C 168.30 391.61 167.66 390.76 169.00 391.00
C 167.39 389.39 159.57 379.35 158.00 381.00 Z"/>
</g>
<g fill="#000000" fill-opacity="0.00" stroke="None">
<path d="
M 167.00 391.00 
C 163.81 388.79 161.41 384.38 158.00 382.00
C 159.37 384.79 164.13 389.64 167.00 391.00 Z"/>
</g>
<g fill="#00552C" fill-opacity="0.80" stroke="None">
<path d="
M 516.00 396.00 
C 518.25 393.75 520.77 391.38 523.00 389.00
C 520.58 391.21 518.18 393.44 516.00 396.00 Z"/>
</g>
<g fill="#002000" fill-opacity="0.01" stroke="None">
<path d="
M 524.00 391.00 
C 521.28 391.34 518.41 394.33 518.00 397.00
C 520.33 395.57 522.43 393.28 524.00 391.00 Z"/>
</g>
<g fill="#001B00" fill-opacity="0.01" stroke="None">
<path d="
M 501.00 409.00 
C 500.75 410.53 498.45 411.18 499.00 413.00
C 501.57 412.90 502.79 408.29 503.00 408.00
C 502.64 408.33 501.48 408.71 501.00 409.00 Z"/>
</g>
<g fill="#A9AA00" fill-opacity="0.01" stroke="None">
<path d="
M 334.00 420.00 
C 333.18 419.18 334.74 420.74 334.00 420.00 Z"/>
</g>
<g fill="#7F8000" fill-opacity="0.01" stroke="None">
<path d="
M 331.00 421.00 
C 330.18 420.18 331.74 421.74 331.00 421.00 Z"/>
</g>
<g fill="#A9AA00" fill-opacity="0.01" stroke="None">
<path d="
M 326.00 423.00 
C 325.18 422.18 326.74 423.74 326.00 423.00 Z"/>
</g>
<g fill="#895D06" fill-opacity="0.01" stroke="None">
<path d="
M 316.00 428.00 
C 316.85 427.78 317.50 427.17 318.00 427.00
C 316.69 426.46 315.56 425.59 314.00 426.00
C 314.17 426.57 315.61 427.90 316.00 428.00 Z"/>
</g>
<g fill="#D5AA00" fill-opacity="0.01" stroke="None">
<path d="
M 239.00 427.00 
C 237.34 425.34 239.61 427.61 239.00 427.00 Z"/>
</g>
<g fill="#BFA500" fill-opacity="0.01" stroke="None">
<path d="
M 257.00 430.00 
C 250.81 428.90 253.01 432.79 257.00 430.00 Z"/>
</g>
<g fill="#E0B000" fill-opacity="0.01" stroke="None">
<path d="
M 266.00 432.00 
C 265.91 431.98 266.00 431.00 266.00 431.00
C 264.13 431.39 261.14 430.13 260.00 432.00
C 261.96 431.76 264.05 432.32 266.00 432.00 Z"/>
</g>
<g fill="#7F8000" fill-opacity="0.01" stroke="None">
<path d="
M 266.00 432.00 
C 268.20 431.56 271.55 432.96 273.00 431.00
C 270.72 431.31 268.26 430.59 266.00 431.00
C 266.00 431.00 265.91 431.98 266.00 432.00 Z"/>
</g>
<g fill="#A18400" fill-opacity="0.01" stroke="None">
<path d="
M 288.00 431.00 
C 284.49 431.55 279.76 429.84 277.00 432.00
C 280.51 431.45 285.24 433.16 288.00 431.00 Z"/>
</g>
<g fill="#BE5C22" fill-opacity="1.00" stroke="None">
<path d="
M 282.00 441.00 
C 277.33 441.00 272.67 441.00 268.00 441.00
C 272.34 441.42 277.60 441.43 282.00 441.00 Z"/>
</g>
<g fill="#001E01" fill-opacity="0.01" stroke="None">
<path d="
M 84.00 473.00 
C 83.74 472.77 83.32 472.20 83.00 472.00
C 81.04 470.79 79.11 468.97 78.00 467.00
C 77.02 464.44 80.75 477.60 84.00 473.00 Z"/>
</g>
<g fill="#00542B" fill-opacity="0.23" stroke="None">
<path d="
M 83.00 472.00 
C 81.54 470.13 79.59 468.72 78.00 467.00
C 79.11 468.97 81.04 470.79 83.00 472.00 Z"/>
</g>
<g fill="#00542A" fill-opacity="0.27" stroke="None">
<path d="
M 134.00 495.00 
C 136.14 496.49 137.91 498.54 140.00 500.00
C 138.84 497.63 136.13 495.52 134.00 494.00
C 134.00 494.00 133.77 494.84 134.00 495.00 Z"/>
</g>
<g fill="#001700" fill-opacity="0.01" stroke="None">
<path d="
M 140.00 501.00 
C 140.00 501.00 140.20 500.40 140.00 500.00
C 137.91 498.54 136.14 496.49 134.00 495.00
C 133.14 496.35 138.72 502.35 140.00 501.00 Z"/>
</g>
<g fill="#001B00" fill-opacity="0.01" stroke="None">
<path d="
M 408.00 503.00 
C 408.14 502.90 409.79 502.60 411.24 501.25 C 412.69 499.89 411.47 498.06 411.00 499.00
C 409.99 500.16 409.07 501.81 408.00 503.00 Z"/>
</g>
<g fill="#001E01" fill-opacity="0.02" stroke="None">
<path d="
M 162.00 525.00 
C 161.74 524.77 161.32 524.20 161.00 524.00
C 158.09 522.20 154.76 518.85 153.00 516.00
C 152.80 515.68 152.21 515.27 152.00 515.00
C 148.04 515.06 160.37 527.31 162.00 525.00 Z"/>
</g>
<g fill="#00532A" fill-opacity="0.33" stroke="None">
<path d="
M 161.00 524.00 
C 158.71 521.06 155.99 518.33 153.00 516.00
C 154.76 518.85 158.09 522.20 161.00 524.00 Z"/>
</g>
<g fill="#00552C" fill-opacity="0.80" stroke="None">
<path d="
M 389.00 523.00 
C 391.21 520.79 393.74 518.26 396.00 516.00
C 393.49 518.15 391.19 520.44 389.00 523.00 Z"/>
</g>
<g fill="#002000" fill-opacity="0.01" stroke="None">
<path d="
M 397.00 518.00 
C 394.28 518.33 391.41 521.33 391.00 524.00
C 393.33 522.57 395.43 520.28 397.00 518.00 Z"/>
</g>
<g fill="#808C16" fill-opacity="1.00" stroke="None">
<path d="
M 265.00 520.00 
C 263.30 519.84 260.41 519.05 258.00 519.00
C 259.70 519.16 262.59 519.95 265.00 520.00 Z"/>
</g>
<g fill="#005500" fill-opacity="0.01" stroke="None">
<path d="
M 210.00 531.00 
C 202.74 529.83 204.95 533.86 210.00 531.00 Z"/>
</g>
<g fill="#005500" fill-opacity="0.01" stroke="None">
<path d="
M 345.00 531.00 
C 338.81 529.90 341.01 533.79 345.00 531.00 Z"/>
</g>
<g fill="#005500" fill-opacity="0.01" stroke="None">
<path d="
M 187.00 533.00 
C 180.81 531.90 183.01 535.80 187.00 533.00 Z"/>
</g>
<g fill="#005500" fill-opacity="0.01" stroke="None">
<path d="
M 368.00 533.00 
C 361.81 531.90 364.01 535.79 368.00 533.00 Z"/>
</g>
<g fill="#00542B" fill-opacity="0.51" stroke="None">
<path d="
M 271.00 550.00 
L 282.00 550.00
C 282.00 550.00 282.00 549.00 282.00 549.00
C 278.57 548.69 273.70 548.47 271.00 550.00 Z"/>
</g>
</svg>